<?xml version="1.0" encoding="utf-8" standalone="yes"?>
<!DOCTYPE svg PUBLIC "-//W3C//DTD SVG 1.1//EN" "http://www.w3.org/Graphics/SVG/1.1/DTD/svg11.dtd">
<svg width="1020" height="576" viewBox="0 0 1020 576" style="fill:none;stroke:none;fill-rule:evenodd;clip-rule:evenodd;stroke-linecap:round;stroke-linejoin:round;stroke-miterlimit:1.5;" version="1.1" xmlns="http://www.w3.org/2000/svg" xmlns:xlink="http://www.w3.org/1999/xlink"><style class="text-font-style fontImports" data-font-family="Shantell Sans">@import url('https://fonts.googleapis.com/css2?family=Shantell+Sans:wght@300..800&amp;display=block');</style><rect id="" x="0" y="0" width="1020" height="576" style="fill: #ffffff;"></rect><g id="items" style="isolation: isolate"><g id="blend" style="mix-blend-mode: normal"><g id="g-root-tf_18fpavu347ugw-fill" data-item-order="-587520"><g id="tf_18fpavu347ugw-fill" stroke="none" fill="#ffffff"><g><path d="M0 0h1020 v576 h -1020 Z"></path></g></g></g><g id="g-root-cp_1_row-1_18fpavu347ugz-fill" data-item-order="-501542" transform="translate(26, 175)"><g id="cp_1_row-1_18fpavu347ugz-fill" stroke="none" fill="#d1f4ff"><g><path d="M 9 8.4L 5.9 25.3L 24.1 36.5L 28.7 12.1ZM 24.1 36.5L 51.2 15.7L 32.5 4.9L 5.9 25.3ZM 32.5 4.9L 18.4 111.6L 38 115.4L 51.2 15.7ZM 38 115.4L 63.5 12.3L 43.6 9.3L 18.4 111.6ZM 43.6 9.3L 37.6 111.8L 57.4 115.7L 63.5 12.3ZM 57.4 115.7L 92.5 11.1L 72.9 6.7L 37.6 111.8ZM 72.9 6.7L 59.7 117.8L 79.4 121.7L 92.5 11.1ZM 79.4 121.7L 110.9 10.2L 91.1 6.7L 59.7 117.8ZM 91.1 6.7L 82.3 116.3L 102 120.4L 110.9 10.2ZM 102 120.4L 138.9 12.3L 119.2 8L 82.3 116.3ZM 119.2 8L 108.8 111L 128.6 114.7L 138.9 12.3ZM 128.6 114.7L 158.1 11L 138.5 7.1L 108.8 111ZM 138.5 7.1L 126.3 113.6L 145.9 117.6L 158.1 11ZM 145.9 117.6L 178.2 11.2L 158.4 7.8L 126.3 113.6ZM 158.4 7.8L 153.1 118.4L 172.9 121.5L 178.2 11.2ZM 172.9 121.5L 202.4 11.4L 182.7 7.6L 153.1 118.4ZM 182.7 7.6L 170.5 111.1L 190.1 115.5L 202.4 11.4ZM 190.1 115.5L 222.3 17.2L 202.5 13.3L 170.5 111.1ZM 202.5 13.3L 195.6 118L 215.4 121L 222.3 17.2ZM 215.4 121L 242 9.5L 222.2 6.3L 195.6 118ZM 222.2 6.3L 213.2 116.6L 232.9 120.4L 242 9.5ZM 232.9 120.4L 266.2 15.3L 246.7 10.7L 213.2 116.6ZM 246.7 10.7L 230.8 109.6L 250.2 115L 266.2 15.3ZM 250.2 115L 291.1 12.8L 271.4 8L 230.8 109.6ZM 271.4 8L 261.6 116.1L 281.4 119.3L 291.1 12.8ZM 281.4 119.3L 305.3 15.7L 285.4 12.8L 261.6 116.1ZM 285.4 12.8L 278.6 114.1L 298.4 117.3L 305.3 15.7ZM 298.4 117.3L 325.9 11.2L 306.2 7.7L 278.6 114.1ZM 306.2 7.7L 295.4 111.9L 315.1 116L 325.9 11.2ZM 315.1 116L 347.6 15.6L 327.8 11.9L 295.4 111.9ZM 327.8 11.9L 322 113.4L 341.8 117L 347.6 15.6ZM 341.8 117L 374.6 10.4L 354.7 7L 322 113.4ZM 354.7 7L 349.8 118.6L 369.7 121.3L 374.6 10.4ZM 369.7 121.3L 392.7 16.1L 372.8 13.3L 349.8 118.6ZM 372.8 13.3L 366.7 111.5L 386.5 115L 392.7 16.1ZM 386.5 115L 415 17.2L 395.2 13.4L 366.7 111.5ZM 395.2 13.4L 385.8 114.5L 405.5 118.6L 415 17.2ZM 405.5 118.6L 438.8 16.8L 419.1 12.6L 385.8 114.5ZM 419.1 12.6L 408 115L 427.7 118.6L 438.8 16.8ZM 427.7 118.6L 455.5 11.6L 435.6 8.7L 408 115ZM 435.6 8.7L 431.3 112L 451.2 115.3L 455.5 11.6ZM 451.2 115.3L 482.5 11.1L 462.8 7L 431.3 112ZM 462.8 7L 450.3 111.3L 469.9 115.5L 482.5 11.1ZM 469.9 115.5L 502.3 12L 482.5 8.1L 450.3 111.3ZM 482.5 8.1L 474.4 110.3L 494.1 114L 502.3 12ZM 494.1 114L 523.3 16.4L 503.6 12.6L 474.4 110.3ZM 503.6 12.6L 493.7 116.5L 513.4 121L 523.3 16.4ZM 513.4 121L 543.9 39.5L 523.9 35.8L 493.7 116.5ZM 523.9 35.8L 523.4 89.1L 543.4 95.6L 543.9 39.5ZM 543.4 95.6L 564.4 66.6L 547.7 55.6L 523.4 89.1ZM 547.7 55.6L 543.4 62.6L 560.5 73L 564.4 66.6Z" fill-rule="nonzero"></path></g></g></g><g id="g-root-cp_2_row-2_13zvsre347v9e-fill" data-item-order="-501524" transform="translate(26, 283)"><g id="cp_2_row-2_13zvsre347v9e-fill" stroke="none" fill="#c8ffe5"><g><path d="M 5.4 9L 7.2 20.4L 28.9 30L 25.2 6ZM 28.9 30L 49.8 16L 29.9 5.2L 7.2 20.4ZM 29.9 5.2L 28.9 89.3L 48.9 91.8L 49.8 16ZM 48.9 91.8L 66.5 16.9L 46.6 14.4L 28.9 89.3ZM 46.6 14.4L 44.7 92L 64.6 96L 66.5 16.9ZM 64.6 96L 95.3 18.4L 75.8 13.5L 44.7 92ZM 75.8 13.5L 67.3 87.2L 86.8 92.1L 95.3 18.4ZM 86.8 92.1L 116.9 15.9L 97.1 11.6L 67.3 87.2ZM 97.1 11.6L 92.5 93.9L 112.4 97.6L 116.9 15.9ZM 112.4 97.6L 139 13.4L 119.2 9.6L 92.5 93.9ZM 119.2 9.6L 113.3 87L 133.1 90.5L 139 13.4ZM 133.1 90.5L 155.5 11.1L 135.8 7.3L 113.3 87ZM 135.8 7.3L 128 87.2L 147.6 91.8L 155.5 11.1ZM 147.6 91.8L 179.1 10.4L 159.4 5.8L 128 87.2ZM 159.4 5.8L 152.3 91.8L 172 96.4L 179.1 10.4ZM 172 96.4L 205.6 12.1L 186 7.3L 152.3 91.8ZM 186 7.3L 176.9 94.2L 196.6 98.4L 205.6 12.1ZM 196.6 98.4L 223.4 18.1L 203.7 13.9L 176.9 94.2ZM 203.7 13.9L 196.7 92.2L 216.3 96.8L 223.4 18.1ZM 216.3 96.8L 248.7 12.6L 228.9 8.4L 196.7 92.2ZM 228.9 8.4L 224.7 89.9L 244.6 93.6L 248.7 12.6ZM 244.6 93.6L 271.2 13.1L 251.3 9.5L 224.7 89.9ZM 251.3 9.5L 248.7 92.7L 268.6 95.8L 271.2 13.1ZM 268.6 95.8L 291.3 16.2L 271.5 13L 248.7 92.7ZM 271.5 13L 268.3 87.1L 288.1 90.5L 291.3 16.2ZM 288.1 90.5L 310.1 16.8L 290.4 12.8L 268.3 87.1ZM 290.4 12.8L 282.6 88.3L 302.1 93.3L 310.1 16.8ZM 302.1 93.3L 337.1 10.8L 317.6 5.6L 282.6 88.3ZM 317.6 5.6L 307 93.8L 326.6 98.3L 337.1 10.8ZM 326.6 98.3L 356.1 13.8L 336.4 9.3L 307 93.8ZM 336.4 9.3L 327.2 88.1L 346.8 92.8L 356.1 13.8ZM 346.8 92.8L 378 10.7L 358.3 6.1L 327.2 88.1ZM 358.3 6.1L 350.9 88.9L 370.5 94.2L 378 10.7ZM 370.5 94.2L 405.9 18L 386.2 13L 350.9 88.9ZM 386.2 13L 381.4 88.7L 401.2 91.6L 405.9 18ZM 401.2 91.6L 418.4 16.3L 398.3 14.3L 381.4 88.7ZM 398.3 14.3L 400.3 87.6L 420.4 90.6L 418.4 16.3ZM 420.4 90.6L 446.9 11.2L 427.2 7.1L 400.3 87.6ZM 427.2 7.1L 420.2 87.9L 439.9 92.5L 446.9 11.2ZM 439.9 92.5L 470.3 14.1L 450.5 9.8L 420.2 87.9ZM 450.5 9.8L 445.8 93.9L 465.6 97.5L 470.3 14.1ZM 465.6 97.5L 492.2 11.1L 472.6 6.9L 445.8 93.9ZM 472.6 6.9L 462.9 85.8L 482.4 90.6L 492.2 11.1ZM 482.4 90.6L 510 15.2L 490.3 10.9L 462.9 85.8ZM 490.3 10.9L 484.2 91.4L 503.9 96.2L 510 15.2ZM 503.9 96.2L 535.7 21.1L 516 16.3L 484.2 91.4ZM 516 16.3L 510.6 86L 530.3 90.7L 535.7 21.1ZM 530.3 90.7L 552.3 37.2L 532.9 31.7L 510.6 86ZM 532.9 31.7L 526.7 68.6L 546.5 71.9L 552.3 37.2Z" fill-rule="nonzero"></path></g></g></g><g id="g-root-cp_3_row-3_13zvsre347v9k-fill" data-item-order="-501508" transform="translate(26, 367)"><g id="cp_3_row-3_13zvsre347v9k-fill" stroke="none" fill="#e9ffb9"><g><path d="M 4.2 13.1L 3.7 16.9L 22.1 31.1L 24.1 15.6ZM 22.1 31.1L 47.7 20.9L 28 7.2L 3.7 16.9ZM 28 7.2L 25.9 94.1L 45.8 97.6L 47.7 20.9ZM 45.8 97.6L 74.1 10.7L 54.5 6.4L 25.9 94.1ZM 54.5 6.4L 44.1 94.3L 63.6 98.9L 74.1 10.7ZM 63.6 98.9L 94.7 11.4L 74.8 7.6L 44.1 94.3ZM 74.8 7.6L 72.1 94.4L 92 97.2L 94.7 11.4ZM 92 97.2L 112.8 14L 92.8 11.4L 72.1 94.4ZM 92.8 11.4L 91.9 92.1L 111.9 95.9L 112.8 14ZM 111.9 95.9L 142.5 15.7L 122.7 11.3L 91.9 92.1ZM 122.7 11.3L 117.3 91.3L 137.1 94.2L 142.5 15.7ZM 137.1 94.2L 156.3 10.3L 136.5 7.1L 117.3 91.3ZM 136.5 7.1L 128.6 86.9L 148.2 91.5L 156.3 10.3ZM 148.2 91.5L 179 11.2L 159.3 6.8L 128.6 86.9ZM 159.3 6.8L 153 91.4L 172.8 95.8L 179 11.2ZM 172.8 95.8L 202.9 15.2L 183 11.3L 153 91.4ZM 183 11.3L 180.9 89.1L 200.8 92.9L 202.9 15.2ZM 200.8 92.9L 229.6 14.2L 209.9 9.9L 180.9 89.1ZM 209.9 9.9L 203.2 93L 222.9 97.1L 229.6 14.2ZM 222.9 97.1L 251.7 13.7L 231.9 9.8L 203.2 93ZM 231.9 9.8L 226.6 94.6L 246.5 97.2L 251.7 13.7ZM 246.5 97.2L 264.5 8.5L 244.5 6.4L 226.6 94.6ZM 244.5 6.4L 243.9 92.6L 263.9 95.3L 264.5 8.5ZM 263.9 95.3L 287.4 9.7L 267.5 6.8L 243.9 92.6ZM 267.5 6.8L 265.4 88.2L 285.3 92.4L 287.4 9.7ZM 285.3 92.4L 317.5 13.5L 297.8 8.8L 265.4 88.2ZM 297.8 8.8L 291 86.9L 310.7 90.7L 317.5 13.5ZM 310.7 90.7L 333.3 14.3L 313.3 11.4L 291 86.9ZM 313.3 11.4L 312.8 87.1L 332.8 90.2L 333.3 14.3ZM 332.8 90.2L 356.4 13.1L 336.7 9.1L 312.8 87.1ZM 336.7 9.1L 328.4 90.2L 348 95L 356.4 13.1ZM 348 95L 378.2 17.6L 358.5 13.1L 328.4 90.2ZM 358.5 13.1L 353 86.5L 372.7 90.5L 378.2 17.6ZM 372.7 90.5L 399.8 9.8L 380.2 5.4L 353 86.5ZM 380.2 5.4L 369.5 91.4L 389 96.7L 399.8 9.8ZM 389 96.7L 425.4 13.5L 405.8 8.6L 369.5 91.4ZM 405.8 8.6L 399.3 91L 419.1 94.7L 425.4 13.5ZM 419.1 94.7L 443.8 10.8L 423.9 7.6L 399.3 91ZM 423.9 7.6L 420.6 90.3L 440.4 93.4L 443.8 10.8ZM 440.4 93.4L 462.8 12L 442.8 9.2L 420.6 90.3ZM 442.8 9.2L 442.1 90.1L 462 93.5L 462.8 12ZM 462 93.5L 488 16.9L 468 13.7L 442.1 90.1ZM 468 13.7L 469 93.4L 489 96.1L 488 16.9ZM 489 96.1L 512.7 14L 493.1 10L 469 93.4ZM 493.1 10L 483.1 89.3L 502.6 95.1L 512.7 14ZM 502.6 95.1L 537.7 22.4L 518.3 16.5L 483.1 89.3ZM 518.3 16.5L 509.1 77.5L 528.3 84L 537.7 22.4ZM 528.3 84L 549.4 45.2L 529.6 39.8L 509.1 77.5ZM 529.6 39.8L 528.5 69.4L 548.5 70.1L 549.4 45.2Z" fill-rule="nonzero"></path></g></g></g><g id="g-root-cp_4_row-4_13zvsre347v9p-fill" data-item-order="-501492" transform="translate(26, 451)"><g id="cp_4_row-4_13zvsre347v9p-fill" stroke="none" fill="#fff8b6"><g><path d="M 11.9 12.9L 7.7 25.6L 25.1 36.7L 30.9 19.1ZM 25.1 36.7L 46.4 16.9L 26.4 8.1L 7.7 25.6ZM 26.4 8.1L 25.9 92L 45.9 94.5L 46.4 16.9ZM 45.9 94.5L 66.4 13.9L 46.6 10.6L 25.9 92ZM 46.6 10.6L 40 92.6L 59.7 97.1L 66.4 13.9ZM 59.7 97.1L 92.7 12.7L 73 8.3L 40 92.6ZM 73 8.3L 67.6 88L 87.4 91.6L 92.7 12.7ZM 87.4 91.6L 112.1 9.7L 92.3 6.1L 67.6 88ZM 92.3 6.1L 86.8 87.3L 106.6 91.7L 112.1 9.7ZM 106.6 91.7L 135.8 16.2L 115.9 12.2L 86.8 87.3ZM 115.9 12.2L 113.6 90.2L 133.5 93.8L 135.8 16.2ZM 133.5 93.8L 160 16.6L 140.1 13L 113.6 90.2ZM 140.1 13L 137.6 93.6L 157.5 96.4L 160 16.6ZM 157.5 96.4L 179.4 11.8L 159.5 8.8L 137.6 93.6ZM 159.5 8.8L 155.6 93.2L 175.5 96.5L 179.4 11.8ZM 175.5 96.5L 200.8 9.4L 180.8 6.5L 155.6 93.2ZM 180.8 6.5L 179.9 86.4L 199.9 89.7L 200.8 9.4ZM 199.9 89.7L 224 16.6L 204.2 13L 179.9 86.4ZM 204.2 13L 200.9 94L 220.8 97.8L 224 16.6ZM 220.8 97.8L 249.7 16.6L 230.1 12.3L 200.9 94ZM 230.1 12.3L 223 89.8L 242.8 93.2L 249.7 16.6ZM 242.8 93.2L 263.7 13.3L 243.8 10.5L 223 89.8ZM 243.8 10.5L 241.3 92.6L 261.1 96.3L 263.7 13.3ZM 261.1 96.3L 289.8 13.6L 270.2 9.2L 241.3 92.6ZM 270.2 9.2L 261.2 88.7L 280.8 93.3L 289.8 13.6ZM 280.8 93.3L 310.9 11.1L 290.9 7.6L 261.2 88.7ZM 290.9 7.6L 290.9 90L 310.9 92.6L 310.9 11.1ZM 310.9 92.6L 331.8 13.5L 312.1 10L 290.9 90ZM 312.1 10L 305.3 86.8L 324.9 91.8L 331.8 13.5ZM 324.9 91.8L 359.4 13.6L 340 8.1L 305.3 86.8ZM 340 8.1L 328.1 93.7L 347.6 98.3L 359.4 13.6ZM 347.6 98.3L 377.7 9.8L 357.9 6L 328.1 93.7ZM 357.9 6L 353.3 93.9L 373.1 97.3L 377.7 9.8ZM 373.1 97.3L 398.2 13.6L 378.1 10.8L 353.3 93.9ZM 378.1 10.8L 379.5 93.4L 399.6 96.2L 398.2 13.6ZM 399.6 96.2L 424 14.5L 404.3 10.8L 379.5 93.4ZM 404.3 10.8L 397.6 92.1L 417.4 96.2L 424 14.5ZM 417.4 96.2L 446.2 9.7L 426.7 5.1L 397.6 92.1ZM 426.7 5.1L 415.2 85.9L 434.6 91.5L 446.2 9.7ZM 434.6 91.5L 467.9 16.8L 448.2 11.8L 415.2 85.9ZM 448.2 11.8L 441.7 89.9L 461.4 94.4L 467.9 16.8ZM 461.4 94.4L 492.3 13L 472.5 8.8L 441.7 89.9ZM 472.5 8.8L 467.9 91.9L 487.8 95.2L 492.3 13ZM 487.8 95.2L 509.7 16.9L 489.7 14.2L 467.9 91.9ZM 489.7 14.2L 490.1 89.4L 510.1 92.6L 509.7 16.9ZM 510.1 92.6L 531.6 27L 511.8 23.5L 490.1 89.4ZM 511.8 23.5L 509.6 83.5L 529.5 87.8L 531.6 27ZM 529.5 87.8L 547.4 43.7L 527.3 40L 509.6 83.5ZM 527.3 40L 527.8 68.6L 547.8 68.2L 547.4 43.7Z" fill-rule="nonzero"></path></g></g></g><g id="g-root-cp_1_g-1_zk2amy347v9p-fill" data-item-order="-501474" transform="translate(734, 152)"><g id="cp_1_g-1_zk2amy347v9p-fill" stroke="none" fill="#d1f4ff"><g><path d="M 15.1 32.6L 11.2 42.1L 28.1 53.7L 33.6 40.1ZM 28.1 53.7L 62 21.4L 44.6 10.3L 11.2 42.1ZM 44.6 10.3L 22.3 75.6L 40.3 84.6L 62 21.4ZM 40.3 84.6L 84.7 18.4L 66.9 8.9L 22.3 75.6ZM 66.9 8.9L 31.8 93.1L 49.6 102.5L 84.7 18.4ZM 49.6 102.5L 106.9 14.2L 88.9 5.1L 31.8 93.1ZM 88.9 5.1L 46.8 117.8L 64.9 126.4L 106.9 14.2ZM 64.9 126.4L 130.8 14.1L 112.4 6L 46.8 117.8ZM 112.4 6L 75 124.9L 93.5 132.6L 130.8 14.1ZM 93.5 132.6L 153.8 16L 135.4 8.1L 75 124.9ZM 135.4 8.1L 95.2 125.8L 113.6 133.5L 153.8 16ZM 113.6 133.5L 174 13.3L 155.6 5.4L 95.2 125.8ZM 155.6 5.4L 113.1 123.3L 131.2 132.1L 174 13.3ZM 131.2 132.1L 203.8 15.4L 185.9 6.4L 113.1 123.3ZM 185.9 6.4L 140.1 122.4L 158.1 131.3L 203.8 15.4ZM 158.1 131.3L 227 16.7L 208.7 8.2L 140.1 122.4ZM 208.7 8.2L 168.4 128.3L 187 135.6L 227 16.7ZM 187 135.6L 240.4 16.6L 221.5 9.8L 168.4 128.3ZM 221.5 9.8L 189.7 125.6L 208.2 133.7L 240.4 16.6ZM 208.2 133.7L 256.4 55.9L 238.6 46.6L 189.7 125.6ZM 238.6 46.6L 207.5 117.2L 222.4 133L 256.4 55.9ZM 222.4 133L 253.5 121.8L 237 106.5L 207.5 117.2ZM 237 106.5L 231 128L 250.3 133.4L 253.5 121.8Z" fill-rule="nonzero"></path></g></g></g><g id="g-root-cp_2_g-2_13zvsre347v9g-fill" data-item-order="-501470" transform="translate(746, 240.5)"><g id="cp_2_g-2_13zvsre347v9g-fill" stroke="none" fill="#c8ffe5"><g><path d="M 239.7 130.3L 241.3 126.4L 227.4 107.5L 221.2 122.7ZM 227.4 107.5L 198.6 110L 211.8 128.9L 241.3 126.4ZM 211.8 128.9L 244.1 60.3L 227.1 49.4L 198.6 110ZM 227.1 49.4L 170.1 116.5L 187 127.5L 244.1 60.3ZM 187 127.5L 223.9 50.7L 206.8 39.9L 170.1 116.5ZM 206.8 39.9L 146.9 114.3L 164 124.8L 223.9 50.7ZM 164 124.8L 200.1 44.3L 182.5 34.6L 146.9 114.3ZM 182.5 34.6L 125.8 120.3L 143.3 130.1L 200.1 44.3ZM 143.3 130.1L 180.9 48.8L 163.7 38.3L 125.8 120.3ZM 163.7 38.3L 100.1 119.1L 117.3 129.7L 180.9 48.8ZM 117.3 129.7L 152.8 53.1L 135.6 42.5L 100.1 119.1ZM 135.6 42.5L 76.6 117.1L 94.3 127L 152.8 53.1ZM 94.3 127L 124.9 43.8L 106.6 35.5L 76.6 117.1ZM 106.6 35.5L 60.4 120.8L 78.6 129.3L 124.9 43.8ZM 78.6 129.3L 111.2 46.7L 93.6 36.8L 60.4 120.8ZM 93.6 36.8L 43.3 103.3L 61.2 112.9L 111.2 46.7ZM 61.2 112.9L 85.4 44.5L 68.1 33.7L 43.3 103.3ZM 68.1 33.7L 24.4 78.2L 41.6 89.3L 85.4 44.5ZM 41.6 89.3L 57.4 48.3L 42.3 32L 24.4 78.2ZM 42.3 32L 14.4 40.6L 24.3 58.4L 57.4 48.3ZM 24.3 58.4L 29.4 54L 16.2 39L 14.4 40.6ZM 39.2 38.3L 44.8 21.3L 25.8 15.1L 20.2 32.1Z" fill-rule="nonzero"></path></g></g></g><g id="g-root-cp_3_g-3_13zvsre347v9m-fill" data-item-order="-501466" transform="translate(758, 324.5)"><g id="cp_3_g-3_13zvsre347v9m-fill" stroke="none" fill="#e9ffb9"><g><path d="M 229.7 123.2L 229 111.1L 208.6 102.5L 209.7 124.3ZM 208.6 102.5L 189.7 119.2L 206.4 131L 229 111.1ZM 206.4 131L 231.7 68.5L 214.6 57.4L 189.7 119.2ZM 214.6 57.4L 158.1 115.5L 174.4 127.4L 231.7 68.5ZM 174.4 127.4L 215.2 50.6L 198.4 39.6L 158.1 115.5ZM 198.4 39.6L 137.6 115.4L 154.8 125.8L 215.2 50.6ZM 154.8 125.8L 186.9 52.8L 169.6 42.3L 137.6 115.4ZM 169.6 42.3L 111.1 115.7L 128.2 126.4L 186.9 52.8ZM 128.2 126.4L 166.8 45.2L 149.7 34.8L 111.1 115.7ZM 149.7 34.8L 88.5 115.2L 105.6 125.9L 166.8 45.2ZM 105.6 125.9L 142.9 52.1L 125.7 41.8L 88.5 115.2ZM 125.7 41.8L 71.6 120L 89.4 129.4L 142.9 52.1ZM 89.4 129.4L 121.1 47.2L 103.5 37.4L 71.6 120ZM 103.5 37.4L 46.5 113L 64.2 122.6L 121.1 47.2ZM 64.2 122.6L 91.8 47.5L 73.9 38.3L 46.5 113ZM 73.9 38.3L 37.3 92.5L 55.3 101.4L 91.8 47.5ZM 55.3 101.4L 72.9 49.5L 56 37.2L 37.3 92.5ZM 56 37.2L 20.6 64L 36.3 77.2L 72.9 49.5ZM 36.3 77.2L 47 56.3L 35.4 35.1L 20.6 64ZM 35.4 35.1L 12.4 33L 25 54.3L 47 56.3ZM 25 54.3L 36.9 26.5L 18.6 18.6L 12.4 33Z" fill-rule="nonzero"></path></g></g></g><g id="g-root-cp_4_g-4_13zvsre347v9r-fill" data-item-order="-501462" transform="translate(769.5, 408.5)"><g id="cp_4_g-4_13zvsre347v9r-fill" stroke="none" fill="#fff8b6"><g><path d="M 212.9 130.4L 219 120.5L 205.5 104.3L 195.9 119.9ZM 205.5 104.3L 175.3 116.1L 190 131.8L 219 120.5ZM 190 131.8L 216.6 75.4L 199.9 63.9L 175.3 116.1ZM 199.9 63.9L 151.7 113.9L 168.3 125.4L 216.6 75.4ZM 168.3 125.4L 203.5 52.2L 186.6 41.3L 151.7 113.9ZM 186.6 41.3L 121.9 118.1L 138.8 129L 203.5 52.2ZM 138.8 129L 177.8 46.4L 160.3 36.6L 121.9 118.1ZM 160.3 36.6L 104.7 120.9L 122.2 130.6L 177.8 46.4ZM 122.2 130.6L 157.9 52.5L 140.6 42.2L 104.7 120.9ZM 140.6 42.2L 80.9 121.3L 98.4 131.3L 157.9 52.5ZM 98.4 131.3L 133.4 46L 116.1 35.7L 80.9 121.3ZM 116.1 35.7L 49 117.3L 65.7 128.4L 133.4 46ZM 65.7 128.4L 106.8 51.7L 90.6 39.6L 49 117.3ZM 90.6 39.6L 34 96.4L 51.1 107.6L 106.8 51.7ZM 51.1 107.6L 76 45.3L 59 34L 34 96.4ZM 59 34L 22.2 70.8L 37.8 83.5L 76 45.3ZM 37.8 83.5L 55.1 57.4L 45.3 35.9L 22.2 70.8ZM 45.3 35.9L 17.6 32.4L 27.4 53.8L 55.1 57.4ZM 27.4 53.8L 43.6 29.5L 27 18.4L 17.6 32.4ZM 23.7 59.1L 32.5 51L 19 36.3L 10.2 44.4Z" fill-rule="nonzero"></path></g></g></g><g id="g-root-tx_converti_18fpavu347ugy-fill" data-item-order="0" transform="translate(170, 38)"><g id="tx_converti_18fpavu347ugy-fill" stroke="none" fill="#484848"><g><text style="font: bold 25px &quot;Shantell Sans&quot;, cursive; white-space: pre;" font-weight="bold" font-size="25px" font-family="'Shantell Sans', cursive"><tspan x="144.9" y="60" dominant-baseline="ideographic">Markdownの中にYAMLを書いて</tspan><tspan x="182.09" y="90" dominant-baseline="ideographic">あるやつをexcelに変換する</tspan></text></g></g></g><g id="g-root-tx_extracty_zk2amy347v9o-fill" data-item-order="0" transform="translate(122, 188)"><g id="tx_extracty_zk2amy347v9o-fill" stroke="none" fill="#484848"><g><text style="font: bold 20px &quot;Shantell Sans&quot;, cursive; white-space: pre;" font-weight="bold" font-size="20px" font-family="'Shantell Sans', cursive"><tspan x="12" y="35" dominant-baseline="ideographic">マークダウンから</tspan><tspan x="12" y="59" dominant-baseline="ideographic">Yamlを抽出</tspan></text></g></g></g><g id="g-root-tx_1_zk2amy347v9q-fill" data-item-order="0" transform="translate(62, 212)"><g id="tx_1_zk2amy347v9q-fill" stroke="none" fill="#484848"><g><text style="font: bold 30px &quot;Shantell Sans&quot;, cursive; white-space: pre;" font-weight="bold" font-size="30px" font-family="'Shantell Sans', cursive"><tspan x="15.18" y="48" dominant-baseline="ideographic">1</tspan></text></g></g></g><g id="g-root-ic_1_zk2amy347v9r-fill" data-item-order="0" transform="translate(908, 206)"></g><g id="g-root-tx_2_13zvsre347v9d-fill" data-item-order="0" transform="translate(56, 308)"><g id="tx_2_13zvsre347v9d-fill" stroke="none" fill="#484848"><g><text style="font: bold 30px &quot;Shantell Sans&quot;, cursive; white-space: pre;" font-weight="bold" font-size="30px" font-family="'Shantell Sans', cursive"><tspan x="17.5" y="48" dominant-baseline="ideographic">2</tspan></text></g></g></g><g id="g-root-tx_parseyam_13zvsre347v9f-fill" data-item-order="0" transform="translate(122, 296)"><g id="tx_parseyam_13zvsre347v9f-fill" stroke="none" fill="#484848"><g><text style="font: bold 20px &quot;Shantell Sans&quot;, cursive; white-space: pre;" font-weight="bold" font-size="20px" font-family="'Shantell Sans', cursive"><tspan x="12" y="35" dominant-baseline="ideographic">YAMLを読み取る</tspan></text></g></g></g><g id="g-root-ic_yamm_13zvsre347v9h-fill" data-item-order="0" transform="translate(908, 290)"></g><g id="g-root-tx_3_13zvsre347v9j-fill" data-item-order="0" transform="translate(56, 392)"><g id="tx_3_13zvsre347v9j-fill" stroke="none" fill="#484848"><g><text style="font: bold 30px &quot;Shantell Sans&quot;, cursive; white-space: pre;" font-weight="bold" font-size="30px" font-family="'Shantell Sans', cursive"><tspan x="17.5" y="48" dominant-baseline="ideographic">3</tspan></text></g></g></g><g id="g-root-tx_transfor_13zvsre347v9l-fill" data-item-order="0" transform="translate(122, 380)"><g id="tx_transfor_13zvsre347v9l-fill" stroke="none" fill="#484848"><g><text style="font: bold 20px &quot;Shantell Sans&quot;, cursive; white-space: pre;" font-weight="bold" font-size="20px" font-family="'Shantell Sans', cursive"><tspan x="12" y="35" dominant-baseline="ideographic">変換する</tspan></text></g></g></g><g id="g-root-ic_sync_13zvsre347v9n-fill" data-item-order="0" transform="translate(908, 374)"></g><g id="g-root-tx_4_18fpavu347v9c-fill" data-item-order="0" transform="translate(56, 476)"><g id="tx_4_18fpavu347v9c-fill" stroke="none" fill="#484848"><g><text style="font: bold 30px &quot;Shantell Sans&quot;, cursive; white-space: pre;" font-weight="bold" font-size="30px" font-family="'Shantell Sans', cursive"><tspan x="17.5" y="48" dominant-baseline="ideographic">4</tspan></text></g></g></g><g id="g-root-tx_createex_13zvsre347v9q-fill" data-item-order="0" transform="translate(122, 464)"><g id="tx_createex_13zvsre347v9q-fill" stroke="none" fill="#484848"><g><text style="font: bold 20px &quot;Shantell Sans&quot;, cursive; white-space: pre;" font-weight="bold" font-size="20px" font-family="'Shantell Sans', cursive"><tspan x="12" y="35" dominant-baseline="ideographic">Excel ファイルを生成</tspan></text></g></g></g><g id="g-root-ic_exce_18fpavu347v9d-fill" data-item-order="0" transform="translate(908, 458)"></g><g id="g-root-tf_18fpavu347ugw-stroke" data-item-order="-587520"></g><g id="g-root-cp_1_row-1_18fpavu347ugz-stroke" data-item-order="-501542" transform="translate(26, 175)"><g id="cp_1_row-1_18fpavu347ugz-stroke" fill="none" stroke-linecap="round" stroke-linejoin="round" stroke-miterlimit="4" stroke="#484848" stroke-width="4"><g><path d="M 10 10C 35.3 9.9 60.7 8.9 86 10C 107.4 10.9 128.9 8.7 150.3 10C 173.3 11.4 196.3 9.7 219.4 10C 246.1 10.3 272.8 10 299.6 10C 325 10 350.4 11.2 375.8 10C 398.1 8.9 420.5 10 442.8 10C 466.5 10 490.3 11 514 10C 530.8 27.3 545 46.9 562 64C 546.2 82.2 530.1 100.1 514 118C 492.6 118.6 471.2 119.3 449.8 118C 430.2 116.8 410.5 117.4 390.8 118C 368 118.7 345.2 117.4 322.4 118C 301.5 118.6 280.6 116.7 259.8 118C 240.6 119.2 221.4 117.7 202.2 118C 182.7 118.3 163.2 116.8 143.8 118C 119.7 119.5 95.5 116.8 71.4 118C 50.9 119 30.4 119.6 10 118C 10.7 98.7 10.3 79.4 10 60.1C 9.7 43.4 10.7 26.7 10 10"></path><path d="M 10 10L 514 10L 562 64L 514 118L 10 118L 10 10Z"></path></g></g></g><g id="g-root-cp_2_row-2_13zvsre347v9e-stroke" data-item-order="-501524" transform="translate(26, 283)"><g id="cp_2_row-2_13zvsre347v9e-stroke" fill="none" stroke-linecap="round" stroke-linejoin="round" stroke-miterlimit="4" stroke="#484848" stroke-width="4"><g><path d="M 10 10C 30.4 9.9 50.8 8.2 71.1 10C 87.6 11.5 104.4 11.4 121 10C 139.2 8.4 157.7 11.5 175.9 10C 195.2 8.4 214.6 9.1 233.9 10C 251.2 10.8 268.7 8.2 285.9 10C 303.7 11.9 321.8 11.2 339.7 10C 357.6 8.8 375.6 10.5 393.5 10C 413.6 9.5 433.8 8.2 453.8 10C 473.8 11.8 493.9 11 514 10C 528.8 25.3 546.9 37 562 52C 545.8 65.8 529.9 79.9 514 94C 486.8 92.2 459.4 93.8 432.1 94C 405.6 94.2 379.1 93.3 352.6 94C 323.7 94.8 294.7 94.8 265.7 94C 238 93.2 210.2 95.6 182.5 94C 153.7 92.3 124.8 94.2 96 94C 67.3 93.8 38.6 94.8 10 94C 11.9 66.1 8.8 38 10 10"></path><path d="M 10 10L 514 10L 562 52L 514 94L 10 94L 10 10Z"></path></g></g></g><g id="g-root-cp_3_row-3_13zvsre347v9k-stroke" data-item-order="-501508" transform="translate(26, 367)"><g id="cp_3_row-3_13zvsre347v9k-stroke" fill="none" stroke-linecap="round" stroke-linejoin="round" stroke-miterlimit="4" stroke="#484848" stroke-width="4"><g><path d="M 10 10C 27.7 11.1 45.6 10.9 63.4 10C 84 8.9 104.7 8.1 125.2 10C 144.7 11.8 164.4 9.3 183.9 10C 203.6 10.7 223.4 9.3 243.1 10C 262.9 10.7 282.6 10.3 302.3 10C 319.6 9.7 336.9 8 354 10C 372.3 12.1 390.8 10.9 409.2 10C 426.2 9.1 443.3 11.9 460.2 10C 478 8 496.1 11 514 10C 529.1 25 546.7 37.2 562 52C 546.9 66.9 529.3 79.3 514 94C 494.6 92.2 475.1 94.3 455.7 94C 435.2 93.7 414.8 94.8 394.4 94C 376.9 93.3 359.3 92.9 341.9 94C 324.3 95.1 306.7 94.5 289.2 94C 270.3 93.5 251.4 95.7 232.6 94C 215.9 92.5 198.9 92.5 182.2 94C 161.7 95.9 141 94.5 120.4 94C 102.9 93.6 85.3 95.8 67.9 94C 48.7 92 29.2 95.8 10 94C 9 79.3 10.8 64.5 10 49.8C 9.3 36.6 10.7 23.3 10 10"></path><path d="M 10 10L 514 10L 562 52L 514 94L 10 94L 10 10Z"></path></g></g></g><g id="g-root-cp_4_row-4_13zvsre347v9p-stroke" data-item-order="-501492" transform="translate(26, 451)"><g id="cp_4_row-4_13zvsre347v9p-stroke" fill="none" stroke-linecap="round" stroke-linejoin="round" stroke-miterlimit="4" stroke="#484848" stroke-width="4"><g><path d="M 10 10C 33.4 9.6 56.9 10.5 80.3 10C 102.3 9.6 124.3 9 146.2 10C 170.2 11.1 194.3 8.6 218.3 10C 242 11.4 265.8 10.2 289.6 10C 315.8 9.8 341.9 11.1 368 10C 394.3 8.9 420.7 9.3 447 10C 469.3 10.6 491.7 10.3 514 10C 530.8 23 546.6 37.4 562 52C 553.6 58.3 546.5 66.3 538.2 72.8C 529.8 79.5 522.2 87 514 94C 491.3 94.7 468.7 94.3 446 94C 422.4 93.7 398.8 95.6 375.2 94C 350.1 92.3 324.9 93.1 299.7 94C 276.3 94.8 252.9 92.5 229.5 94C 205.6 95.5 181.6 94.4 157.6 94C 131.2 93.6 104.9 94.4 78.5 94C 55.7 93.6 32.8 93.3 10 94C 9.2 66 10.7 38 10 10"></path><path d="M 10 10L 514 10L 562 52L 514 94L 10 94L 10 10Z"></path></g></g></g><g id="g-root-cp_1_g-1_zk2amy347v9p-stroke" data-item-order="-501474" transform="translate(734, 152)"><g id="cp_1_g-1_zk2amy347v9p-stroke" fill="none" stroke-linecap="round" stroke-linejoin="round" stroke-miterlimit="4" stroke="#484848" stroke-width="4"><g><path d="M 250 130C 216.9 130.5 183.9 130.7 150.8 130C 119.9 129.4 88.9 131.5 58 130C 49.5 116.7 41 103.4 34.6 89C 27.9 73.9 19.5 59.5 10 46C 38.6 44 67.4 44.6 96 46C 120.4 47.2 144.9 44.2 169.3 46C 196.1 48 223.1 44.2 250 46C 250.7 74 250.8 102 250 130M 250 10C 232.1 11.4 214.1 9 196.2 10C 179.2 10.9 162.1 9.2 145.1 10C 125.5 10.9 105.9 10.3 86.3 10C 67.7 9.7 49.1 10.1 30.5 10C 24.7 22.5 17.4 34.4 10 46C 34 45.6 58 46.2 82.1 46C 110.6 45.7 139.1 46.6 167.6 46C 195.1 45.4 222.5 45.7 250 46C 250 34 248.3 21.9 250 10"></path><path d="M 250 130L 58 130L 10 46L 250 46L 250 130ZM 250 10L 30.5 10L 10 46L 250 46L 250 10Z"></path></g></g></g><g id="g-root-cp_2_g-2_13zvsre347v9g-stroke" data-item-order="-501470" transform="translate(746, 240.5)"><g id="cp_2_g-2_13zvsre347v9g-stroke" fill="none" stroke-linecap="round" stroke-linejoin="round" stroke-miterlimit="4" stroke="#484848" stroke-width="4"><g><path d="M 238 125.5C 221.8 124.5 205.5 127 189.3 125.5C 174.6 124.1 159.7 126.7 144.9 125.5C 129.7 124.2 114.3 123.6 99.2 125.5C 85.6 127.2 71.7 125.2 58 125.5C 49.8 110.5 41 95.8 32.5 80.9C 25.1 67.8 17.3 54.7 10 41.5C 32.8 39.6 55.8 41.2 78.8 41.5C 102.9 41.8 127.1 41.1 151.2 41.5C 180.1 41.9 209.1 42.7 238 41.5C 238.5 69.5 238.5 97.5 238 125.5M 46 41.5C 39.3 31.4 32.3 21.3 28 10C 22.8 20.9 16.7 31.4 10 41.5C 22 41.8 34.1 43 46 41.5"></path><path d="M 238 125.5L 58 125.5L 10 41.5L 238 41.5L 238 125.5ZM 46 41.5L 28 10L 10 41.5L 46 41.5Z"></path></g></g></g><g id="g-root-cp_3_g-3_13zvsre347v9m-stroke" data-item-order="-501466" transform="translate(758, 324.5)"><g id="cp_3_g-3_13zvsre347v9m-stroke" fill="none" stroke-linecap="round" stroke-linejoin="round" stroke-miterlimit="4" stroke="#484848" stroke-width="4"><g><path d="M 226 125.5C 198.4 125.3 170.9 125.2 143.3 125.5C 114.9 125.8 86.4 127.1 58 125.5C 40.5 98.4 24.4 70.4 10 41.5C 35.1 40.2 60.4 39.9 85.5 41.5C 110.7 43.1 136.1 40.7 161.4 41.5C 182.9 42.2 204.5 40.8 226 41.5C 224.5 69.5 224.4 97.5 226 125.5M 46 41.5C 39.3 31.4 34.6 20.2 28 10C 21.5 20.2 14.5 30.3 10 41.5C 22 42.2 34 42 46 41.5"></path><path d="M 226 125.5L 58 125.5L 10 41.5L 226 41.5L 226 125.5ZM 46 41.5L 28 10L 10 41.5L 46 41.5Z"></path></g></g></g><g id="g-root-cp_4_g-4_13zvsre347v9r-stroke" data-item-order="-501462" transform="translate(769.5, 408.5)"><g id="cp_4_g-4_13zvsre347v9r-stroke" fill="none" stroke-linecap="round" stroke-linejoin="round" stroke-miterlimit="4" stroke="#484848" stroke-width="4"><g><path d="M 214.5 125.5C 190.6 124.9 166.6 123.8 142.7 125.5C 114.5 127.4 86.2 125.6 58 125.5C 42.7 97.1 24.3 70.4 10 41.5C 32.3 40.7 54.6 40.8 76.9 41.5C 99.9 42.3 123 41.3 146 41.5C 168.8 41.7 191.7 39.9 214.5 41.5C 213 69.5 212.8 97.5 214.5 125.5M 46.5 41.5C 39.7 31.5 34.5 20.5 28.5 10C 21.1 19.5 17.3 31.5 10.5 41.5C 22.4 40.3 34.6 40.2 46.5 41.5"></path><path d="M 214.5 125.5L 58 125.5L 10 41.5L 214.5 41.5L 214.5 125.5ZM 46.5 41.5L 28.5 10L 10.5 41.5L 46.5 41.5Z"></path></g></g></g><g id="g-root-tx_converti_18fpavu347ugy-stroke" data-item-order="0" transform="translate(170, 38)"></g><g id="g-root-tx_extracty_zk2amy347v9o-stroke" data-item-order="0" transform="translate(122, 188)"></g><g id="g-root-tx_1_zk2amy347v9q-stroke" data-item-order="0" transform="translate(62, 212)"></g><g id="g-root-ic_1_zk2amy347v9r-stroke" data-item-order="0" transform="translate(908, 206)"><g id="ic_1_zk2amy347v9r-stroke" fill="none" stroke-linecap="round" stroke-linejoin="round" stroke-miterlimit="4" stroke="#484848" stroke-width="2"><g><path d="M 49 35C 48.200001 31 49 27 49 23C 49 16.4 43.599998 11.8 37 11C 29 10.2 21 10.2 13 11C 11.8 11 10.8 12 11 13C 13.6 26.799999 8.6 41.200001 11 55C 11.2 56 11.8 57 13 57C 19 56.599998 25.4 55 31 57M 39 11.2C 39.599998 13.8 38.799999 16.4 39 19C 39.200001 20 40 20.799999 41 21C 43.599998 21.4 46.200001 21 48.799999 21M 45 41C 44.599998 42.200001 45 43.599998 45 45C 45.200001 47.200001 43.200001 48.799999 41 49C 38.799999 49.200001 37.799999 47 37 45C 36.599998 43.799999 36.599998 42.200001 37 41M 41 49C 41 51.599998 41 54.400002 41 57M 49 57C 49.200001 51.599998 49 46.400002 49 41C 50 43.799999 51.200001 46.599998 53 49C 54.400002 46.400002 55.200001 43.400002 57 41C 57.200001 46.400002 56.200001 51.799999 57 57M 49 35L 49 22.956001C 49.003315 16.353855 43.652145 10.999999 37.049999 11L 13 11C 11.895431 11 11 11.895431 11 13L 11 55C 11 56.104568 11.895431 57 13 57L 31 57M 39 11.168L 39 19C 39 20.104568 39.895432 21 41 21L 48.84 21M 45 41L 45 45C 45 47.209141 43.209141 49 41 49C 38.790863 49 37 47.209141 37 45L 37 41M 41 49.007999L 41 57.007999M 49 57.007999L 49 41.007999L 53 49.007999L 57 41.007999L 57 57.007999"></path></g></g></g><g id="g-root-tx_2_13zvsre347v9d-stroke" data-item-order="0" transform="translate(56, 308)"></g><g id="g-root-tx_parseyam_13zvsre347v9f-stroke" data-item-order="0" transform="translate(122, 296)"></g><g id="g-root-ic_yamm_13zvsre347v9h-stroke" data-item-order="0" transform="translate(908, 290)"><g id="ic_yamm_13zvsre347v9h-stroke" fill="none" stroke-linecap="round" stroke-linejoin="round" stroke-miterlimit="4" stroke="#484848" stroke-width="2"><g><path d="M 13 22C 19.6 22.799999 26.6 20.200001 33 22C 33 22 35.799999 22.200001 35 24C 32.599998 30.200001 34 37.400002 35 44C 35 44 35 46 33 46C 26.4 46 19.4 43.799999 13 46C 13 46 10.6 46 11 44C 12 37.400002 10.8 30.6 11 24C 11 24 11 21.799999 13 22M 10 10M 28 27C 27 30 24.4 32.200001 23 35C 22.4 31.799999 20.200001 29.200001 18 27M 23 35C 23.4 37 22.200001 39.200001 23 41M 35 29C 40.799999 26.200001 47 24 53.400002 23.6C 54.400002 23.4 55.200001 23.799999 55.799999 24.799999C 56.599998 27.799999 56.400002 31 57 34M 10 10M 30 22C 33.599998 19.200001 36.400002 15.4 39.799999 12.2C 40.599998 11.6 42 11.2 42.400002 12C 44.799999 16.4 48.200001 19.799999 50 24.6M 10 10M 35 39C 41.200001 40.200001 47.400002 42.200001 53.400002 44.599998C 54.400002 44.799999 55.599998 44.200001 55.799999 43.200001C 57 40.400002 56.400002 37 57 34M 10 10M 30 46C 33.599998 48.799999 36.200001 53 39.799999 55.799999C 40.599998 56.400002 41.599998 56.400002 42.400002 56C 46.599998 53.200001 48 48 50 43.599998M 13 22L 33 22C 33 22 35 22 35 24L 35 44C 35 44 35 46 33 46L 13 46C 13 46 11 46 11 44L 11 24C 11 24 11 22 13 22M 10 10M 28 27L 23 35L 18 27M 23 35L 23 41M 35 29L 53.299999 23.5C 54.336948 23.184082 55.436817 23.751755 55.779999 24.779999C 56.674278 27.768923 57.086117 30.88135 57 34M 10 10M 30 22L 39.779999 12.22C 40.510078 11.497966 41.668312 11.446104 42.459999 12.1C 46.22715 15.327089 48.868195 19.670452 50 24.5M 10 10M 35 39L 53.299999 44.5C 54.336948 44.815918 55.436817 44.248245 55.779999 43.220001C 56.674278 40.231075 57.086117 37.118649 57 34M 10 10M 30 46L 39.779999 55.779999C 40.510078 56.502033 41.668312 56.553894 42.459999 55.900002C 46.22715 52.672913 48.868195 48.329548 50 43.5"></path></g></g></g><g id="g-root-tx_3_13zvsre347v9j-stroke" data-item-order="0" transform="translate(56, 392)"></g><g id="g-root-tx_transfor_13zvsre347v9l-stroke" data-item-order="0" transform="translate(122, 380)"></g><g id="g-root-ic_sync_13zvsre347v9n-stroke" data-item-order="0" transform="translate(908, 374)"><g id="ic_sync_13zvsre347v9n-stroke" fill="none" stroke-linecap="round" stroke-linejoin="round" stroke-miterlimit="4" stroke="#484848" stroke-width="2"><g><path d="M 41 47.799999C 38.799999 48.599998 36.200001 48.200001 33.799999 47.799999C 34.400002 50.400002 32.799999 53.200001 33.799999 55.400002M 55.799999 49.400002C 55.400002 54.200001 49.599998 58.799999 45 57C 40 56.200001 35 52.799999 35 47.799999M 49.799999 41.799999C 52.200001 41.799999 54.599998 41.400002 57 41.799999C 57.200001 39.400002 57.400002 36.799999 57 34.200001M 35 40.400002C 36 35.599998 41 33.599998 45.799999 32.799999C 50.799999 33 55.599998 36.799999 55.599998 41.799999M 11 19.200001C 24.200001 20.4 37.799999 22 50.599998 19.200001M 11 36.599998C 17.4 37 24.200001 38.799999 30.200001 36.599998M 11 27.799999C 23.799999 24.4 37.400002 28 50.599998 27.799999M 27.200001 19.200001C 27.4 28 25.799999 36.799999 27.200001 45.400002M 38.799999 19.200001C 39 22.799999 40.200001 26.6 38.799999 30M 28.6 45.400002C 24.4 44 19.6 44.799999 15.2 45.400002C 13 45.799999 11.4 43.599998 11 41.200001C 9.4 32.799999 10 23.799999 11 15.2C 11.2 13 13 11.4 15.2 11C 25.4 9 36 11.6 46.400002 11C 48.799999 10.8 50.200001 13 50.599998 15.2C 51.799999 20 50.799999 25.200001 50.599998 30.200001M 41.042 47.897999L 33.788002 47.897999L 33.788002 55.456001M 55.872002 49.375999C 54.399643 54.110519 49.889694 57.231838 44.939999 56.942001C 39.984215 56.515766 35.939758 52.799995 35.096001 47.897999M 49.745998 41.854L 57 41.854L 57 34.298M 34.916 40.372002C 36.390583 35.63987 40.899967 32.521416 45.848 32.812C 50.801655 33.239838 54.844662 36.952637 55.692001 41.852001M 11 19.172001L 50.672001 19.172001M 11 36.501999L 30.148001 36.501999M 11 27.85L 50.661999 27.85M 27.204 19.172001L 27.204 45.470001M 38.821999 19.172001L 38.821999 30.056M 28.636 45.464001L 15.184 45.464001C 12.878763 45.463997 11.01 43.595234 11.01 41.289997L 11.01 15.2C 11.01331 12.897106 12.881104 11.031998 15.184 11.032L 46.487999 11.032C 48.790894 11.031998 50.658688 12.897106 50.661999 15.2L 50.661999 30.200001"></path></g></g></g><g id="g-root-tx_4_18fpavu347v9c-stroke" data-item-order="0" transform="translate(56, 476)"></g><g id="g-root-tx_createex_13zvsre347v9q-stroke" data-item-order="0" transform="translate(122, 464)"></g><g id="g-root-ic_exce_18fpavu347v9d-stroke" data-item-order="0" transform="translate(908, 458)"><g id="ic_exce_18fpavu347v9d-stroke" fill="none" stroke-linecap="round" stroke-linejoin="round" stroke-miterlimit="4" stroke="#484848" stroke-width="2"><g><path d="M 23 46C 23 48 22.6 50 23 52C 23.200001 53 23.799999 54 25 54C 35 53.799999 45.200001 52.400002 55 54C 56 54.200001 56.799999 53 57 52C 60.200001 40.400002 59.799999 27.6 57 16C 56.799999 15 56 14 55 14C 45 13 35 14.6 25 14C 23.799999 14 22.6 15 23 16C 23.6 17.799999 22.6 20 23 22M 35 34C 42.400002 33.400002 49.799999 33 57 34M 35 24C 42.400002 24.200001 49.599998 23.6 57 24M 13 22C 19.6 20.6 26.4 23 33 22C 33 22 34.599998 22 35 24C 36.200001 30.6 34.400002 37.400002 35 44C 35 44 35 46.200001 33 46C 26.4 45.400002 19.6 47.400002 13 46C 13 46 11.8 45.799999 11 44C 8.6 37.799999 9.8 30.6 11 24C 11 24 11 21.799999 13 22M 18 28C 20.4 32.599998 24.4 36.200001 28 40M 28 28C 23.799999 31 22.200001 37 18 40M 40.200001 14C 40 24 39.400002 34 40.200001 44C 45.799999 43.799999 51.599998 42.599998 57 44M 23 46L 23 52C 23 53.104568 23.895432 54 25 54L 55 54C 56.104568 54 57 53.104568 57 52L 57 16C 57 14.895431 56.104568 14 55 14L 25 14C 23.895432 14 23 14.895431 23 16L 23 22M 35 34L 57 34M 35 24L 57 24M 13 22L 33 22C 33 22 35 22 35 24L 35 44C 35 44 35 46 33 46L 13 46C 13 46 11 46 11 44L 11 24C 11 24 11 22 13 22M 18 28L 28 40M 28 28L 18 40M 40.260002 14L 40.260002 44L 57 44"></path></g></g></g></g></g><path id="w4hxze21gbpxl" d="M65.283 12.757a.35.35 0 0 0 .584.157l5.203-5.141-6.183 3.523.396 1.461zm-2.216-11.7a.35.35 0 0 0-.522.305v3.111l3.276-1.868-2.754-1.548zm3.728 2.105l-4.25 2.421v2.445l6.391-3.644-2.141-1.222zm4.708 3.303a.35.35 0 0 0 0-.609l-1.592-.9-7.365 4.199v1.782a.35.35 0 0 0 .523.305l8.435-4.777z M44.542 2.513c0-.433.355-.783.792-.783s.792.35.792.783-.355.783-.792.783-.792-.35-.792-.783zm59.171 0c0-.433.355-.783.792-.783s.792.35.792.783-.355.783-.792.783-.792-.35-.792-.783zm-85.951 7.636h-1.27v-.487c-.276.201-.864.609-1.881.609-1.202 0-2.274-.794-2.137-2.078.118-1.106 1.153-1.584 1.848-1.727l2.17-.345c0-.539-.29-.956-1.064-1.006s-1.21.305-1.571 1.017l-1.124-.605c1.218-2.631 5.029-1.764 5.029.414v4.207zm-1.27-2.86c.006.396-.062 1.112-.819 1.59-.587.37-1.841.299-1.903-.395-.049-.555.461-.791.906-.898l1.816-.297zm72.662 2.86h-1.27v-.487c-.276.201-.864.609-1.881.609-1.202 0-2.274-.794-2.137-2.078.118-1.106 1.153-1.584 1.848-1.727l2.17-.345c0-.539-.29-.956-1.064-1.006s-1.21.305-1.571 1.017l-1.124-.605c1.218-2.631 5.029-1.764 5.029.414v4.207zm-1.27-2.86c.006.396-.062 1.112-.82 1.59-.587.37-1.841.299-1.903-.395-.049-.555.461-.791.906-.898l1.816-.297zM99.096 10.149H97.85v-8.45h1.246v4.895l2.68-2.559h1.738l-2.633 2.535 2.715 3.578h-1.556l-2.077-2.707-.867.844v1.863zm6.053-6.114h-1.255v6.113h1.255V4.035zm-59.2 0h-1.255v6.113h1.255V4.035zm5.584 6.113V1.697h1.255v2.695c.361-.346 1-.485 1.47-.485 1.452 0 2.477 1.082 2.457 2.448v3.792h-1.27v-3.68c0-.408-.214-1.339-1.315-1.339-.968 0-1.342.756-1.342 1.339v3.681h-1.255zm-4.76-4.894V4.039h.621a.45.45 0 0 0 .45-.45v-.855h1.251v1.305h1.309v1.215h-1.309v3.109c0 .293.105.664.648.664.365 0 .531-.035.736-.07v1.137s-.361.113-.857.113c-1.398 0-1.777-1.051-1.777-1.788V5.254h-1.071zM36.528 4.039h-1.394l2.191 6.106h1.125l1.234-3.918 1.238 3.918h1.129l2.188-6.106h-1.383l-1.359 3.93-1.256-3.93h-1.124l-1.242 3.957-1.348-3.957zM26.212 7.141c-.02 1.566 1.187 3.129 3.223 3.129 1.566 0 2.383-.918 2.734-1.719L31.172 8c-.315.399-.801 1.094-1.738 1.094-1.145 0-1.825-.781-1.891-1.52h4.625c.074-.284.148-.995-.03-1.559-.336-1.064-1.221-2.102-2.839-2.102s-3.088 1.152-3.088 3.227zm1.363-.75h3.348c-.055-.43-.566-1.301-1.623-1.301a1.79 1.79 0 0 0-1.725 1.301zm-8.758.75c.038 1.758 1.277 3.133 3.145 3.133 1.074 0 1.723-.477 1.961-.672v.547h1.242V1.703h-1.258v2.888c-.414-.36-1.062-.68-1.93-.68-1.91 0-3.198 1.473-3.16 3.23zm1.309-.08c0 1.119.723 1.978 1.836 1.978a1.88 1.88 0 0 0 1.94-1.904c0-1.371-1.011-1.99-1.972-1.99s-1.805.798-1.805 1.916zm76.683-.028C96.771 5.275 95.532 3.9 93.664 3.9c-1.074 0-1.723.477-1.961.672v-.547h-1.242v8.22h1.258V9.583c.414.36 1.063.68 1.93.68 1.91 0 3.198-1.473 3.16-3.23zm-1.309.08c0-1.119-.723-1.978-1.836-1.978a1.88 1.88 0 0 0-1.94 1.904c0 1.371 1.011 1.99 1.972 1.99S95.5 8.231 95.5 7.113zM106.441 10.173V4.036h1.254v.382c.361-.346 1-.485 1.47-.485 1.452 0 2.477 1.082 2.457 2.448v3.792h-1.27V6.492c0-.408-.214-1.339-1.315-1.339-.969 0-1.342.756-1.342 1.339v3.681h-1.254zm-30.383-.021V1.824h1.084l4.215 5.777V1.824h1.32v8.328h-1.094l-4.207-5.796v5.796h-1.319zM5.24 10.149H4V2.377h1.014l2.664 3.597 2.654-3.592h1.03v7.766h-1.256V4.762L7.678 8.068 5.24 4.742v5.407z" transform="translate(890, 548)" fill="#80808088" stroke="none"></path></svg>