<?xml version="1.0" encoding="utf-8" standalone="yes"?>
<!DOCTYPE svg PUBLIC "-//W3C//DTD SVG 1.1//EN" "http://www.w3.org/Graphics/SVG/1.1/DTD/svg11.dtd">
<svg width="1020" height="540" viewBox="0 0 1020 540" style="fill:none;stroke:none;fill-rule:evenodd;clip-rule:evenodd;stroke-linecap:round;stroke-linejoin:round;stroke-miterlimit:1.5;" version="1.1" xmlns="http://www.w3.org/2000/svg" xmlns:xlink="http://www.w3.org/1999/xlink"><style class="text-font-style fontImports" data-font-family="Shantell Sans">@import url('https://fonts.googleapis.com/css2?family=Shantell+Sans:wght@300..800&amp;display=block');</style><rect id="" x="0" y="0" width="1020" height="540" style="fill: #ffffff;"></rect><g id="items" style="isolation: isolate"><g id="blend" style="mix-blend-mode: normal"><g id="g-root-tf_1unfgwa1q01z9-fill" data-item-order="-550800"><g id="tf_1unfgwa1q01z9-fill" stroke="none" fill="#ffffff"><g><path d="M 0 0L 1020 0L 1020 540L 0 540Z"></path></g></g></g><g id="g-root-cp_1_row-1_1lvjb621px8g9-fill" data-item-order="-443222" transform="translate(26, 121)"><g id="cp_1_row-1_1lvjb621px8g9-fill" stroke="none" fill="#d1f4ff"><g><path d="M 12.6 10.1L 8.8 43.9L 28.2 50L 32.4 12.3ZM 28.2 50L 47.9 13.8L 28.4 7.9L 8.8 43.9ZM 28.4 7.9L 20.8 91.9L 40.4 96.6L 47.9 13.8ZM 40.4 96.6L 73.1 14.3L 53.3 10L 20.8 91.9ZM 53.3 10L 48.7 92.2L 68.5 95.4L 73.1 14.3ZM 68.5 95.4L 92 8.9L 72.1 6.2L 48.7 92.2ZM 72.1 6.2L 71.3 93.5L 91.3 96.6L 92 8.9ZM 91.3 96.6L 116.5 15.8L 96.7 11.9L 71.3 93.5ZM 96.7 11.9L 90.1 89.1L 109.8 93L 116.5 15.8ZM 109.8 93L 135.8 10.4L 115.9 6.9L 90.1 89.1ZM 115.9 6.9L 112.3 86.7L 132.1 90.7L 135.8 10.4ZM 132.1 90.7L 160.3 13.6L 140.6 9.3L 112.3 86.7ZM 140.6 9.3L 134.3 88.7L 154 92.3L 160.3 13.6ZM 154 92.3L 177.7 10.8L 157.6 8.2L 134.3 88.7ZM 157.6 8.2L 159.4 91.9L 179.5 94.4L 177.7 10.8ZM 179.5 94.4L 202.3 13.9L 182.5 10.1L 159.4 91.9ZM 182.5 10.1L 174.8 87.9L 194.5 92.6L 202.3 13.9ZM 194.5 92.6L 223.4 17.6L 203.6 13.5L 174.8 87.9ZM 203.6 13.5L 199.9 93L 219.8 96.1L 223.4 17.6ZM 219.8 96.1L 243.2 11.8L 223.4 8.3L 199.9 93ZM 223.4 8.3L 217 89L 236.7 93.9L 243.2 11.8ZM 236.7 93.9L 270.4 16.4L 250.7 11.6L 217 89ZM 250.7 11.6L 245.5 93.7L 265.4 97L 270.4 16.4ZM 265.4 97L 289.9 9.7L 270.1 6.3L 245.5 93.7ZM 270.1 6.3L 264.7 90.5L 284.5 94.2L 289.9 9.7ZM 284.5 94.2L 311.2 9.7L 291.2 6.3L 264.7 90.5ZM 291.2 6.3L 289.1 87.8L 309.1 90.9L 311.2 9.7ZM 309.1 90.9L 331.5 13.1L 311.6 9.7L 289.1 87.8ZM 311.6 9.7L 307 88.3L 326.7 93.2L 331.5 13.1ZM 326.7 93.2L 360.6 18.4L 341 13.1L 307 88.3ZM 341 13.1L 333.1 89.4L 352.7 94L 360.6 18.4ZM 352.7 94L 382 16.1L 362.3 11.9L 333.1 89.4ZM 362.3 11.9L 357.1 92.9L 376.9 96.4L 382 16.1ZM 376.9 96.4L 401.4 13.8L 381.8 9.8L 357.1 92.9ZM 381.8 9.8L 373 88.2L 392.6 92.7L 401.4 13.8ZM 392.6 92.7L 420.9 14L 401.2 9.6L 373 88.2ZM 401.2 9.6L 393.2 88.6L 412.8 93.8L 420.9 14ZM 412.8 93.8L 446.5 17L 426.6 12.7L 393.2 88.6ZM 426.6 12.7L 425.5 93.5L 445.5 96.3L 446.5 17ZM 445.5 96.3L 468.4 10.7L 448.5 7.8L 425.5 93.5ZM 448.5 7.8L 446.3 90.5L 466.2 94.1L 468.4 10.7ZM 466.2 94.1L 492.6 16.9L 473 12.4L 446.3 90.5ZM 473 12.4L 463.9 89.2L 483.4 93.9L 492.6 16.9ZM 483.4 93.9L 513.5 12.3L 493.8 7.8L 463.9 89.2ZM 493.8 7.8L 485.5 94.2L 505.1 98.6L 513.5 12.3ZM 505.1 98.6L 534.1 19.1L 514.5 14.3L 485.5 94.2ZM 514.5 14.3L 505.5 84.5L 524.7 91.8L 534.1 19.1ZM 524.7 91.8L 556.9 44.9L 537.2 38.3L 505.5 84.5ZM 537.2 38.3L 536 66.7L 555.9 67.6L 556.9 44.9Z" fill-rule="nonzero"></path></g></g></g><g id="g-root-cp_2_row-2_1hfpt1m1px98j-fill" data-item-order="-443204" transform="translate(26, 205)"><g id="cp_2_row-2_1hfpt1m1px98j-fill" stroke="none" fill="#c8ffe5"><g><path d="M 11.9 14.2L 6.5 45.9L 25.6 52.6L 31.6 17.5ZM 25.6 52.6L 45.8 16.1L 26 10.6L 6.5 45.9ZM 26 10.6L 23 90L 42.9 93.3L 45.8 16.1ZM 42.9 93.3L 67.8 10.3L 47.9 7.2L 23 90ZM 47.9 7.2L 46.2 93.3L 66.1 96.2L 67.8 10.3ZM 66.1 96.2L 90.3 10.7L 70.5 7.3L 46.2 93.3ZM 70.5 7.3L 64.8 93.5L 84.5 97.5L 90.3 10.7ZM 84.5 97.5L 114.9 9.6L 95.1 5.8L 64.8 93.5ZM 95.1 5.8L 91.3 90.4L 111.2 93.4L 114.9 9.6ZM 111.2 93.4L 133.1 8.8L 113.1 6.2L 91.3 90.4ZM 113.1 6.2L 112.3 93.7L 132.3 96.4L 133.1 8.8ZM 132.3 96.4L 154.2 14.3L 134.1 12L 112.3 93.7ZM 134.1 12L 136.1 88.4L 156.2 90.8L 154.2 14.3ZM 156.2 90.8L 178.2 11L 158.4 7.5L 136.1 88.4ZM 158.4 7.5L 152.1 88.8L 171.8 93.2L 178.2 11ZM 171.8 93.2L 202.5 12.6L 182.8 8.3L 152.1 88.8ZM 182.8 8.3L 176.8 91.4L 196.6 95.3L 202.5 12.6ZM 196.6 95.3L 222.8 16.5L 202.9 12.8L 176.8 91.4ZM 202.9 12.8L 199.3 93.6L 219.2 97L 222.8 16.5ZM 219.2 97L 243.9 16L 224.1 12.4L 199.3 93.6ZM 224.1 12.4L 219.1 89.7L 238.9 94.3L 243.9 16ZM 238.9 94.3L 271.8 14.6L 252 10.1L 219.1 89.7ZM 252 10.1L 247.4 95.2L 267.3 98.1L 271.8 14.6ZM 267.3 98.1L 287.5 12.8L 267.7 9.8L 247.4 95.2ZM 267.7 9.8L 262.2 87.6L 282 91.7L 287.5 12.8ZM 282 91.7L 309.9 12.7L 290.1 9L 262.2 87.6ZM 290.1 9L 287.3 93.9L 307.2 97.4L 309.9 12.7ZM 307.2 97.4L 334.3 14.8L 314.7 10.5L 287.3 93.9ZM 314.7 10.5L 306.2 86.1L 325.7 91.3L 334.3 14.8ZM 325.7 91.3L 357.9 17.1L 338.2 12.2L 306.2 86.1ZM 338.2 12.2L 332.4 90.7L 352.1 94.6L 357.9 17.1ZM 352.1 94.6L 379.5 11.7L 359.9 7.1L 332.4 90.7ZM 359.9 7.1L 348.3 92.6L 367.7 98.1L 379.5 11.7ZM 367.7 98.1L 403.1 18.1L 383.9 12.2L 348.3 92.6ZM 383.9 12.2L 370.8 85.2L 389.9 91.6L 403.1 18.1ZM 389.9 91.6L 428.8 14.6L 409.3 8.9L 370.8 85.2ZM 409.3 8.9L 400.1 93.8L 419.8 97.5L 428.8 14.6ZM 419.8 97.5L 444.2 9.2L 424.4 5.6L 400.1 93.8ZM 424.4 5.6L 417 87.2L 436.7 92L 444.2 9.2ZM 436.7 92L 468.6 15.1L 449 10.1L 417 87.2ZM 449 10.1L 441.1 88.9L 460.7 93.2L 468.6 15.1ZM 460.7 93.2L 487.5 13.9L 467.5 10.6L 441.1 88.9ZM 467.5 10.6L 468 94.5L 488.1 97.6L 487.5 13.9ZM 488.1 97.6L 514.1 17L 494.3 13.1L 468 94.5ZM 494.3 13.1L 488.7 90.1L 508.5 93.7L 514.1 17ZM 508.5 93.7L 529.1 24.2L 509.1 21.4L 488.7 90.1ZM 509.1 21.4L 509.9 81.7L 530 87.6L 529.1 24.2ZM 530 87.6L 556.8 47.4L 537.9 39.6L 509.9 81.7ZM 537.9 39.6L 533.6 61.9L 553.2 65.7L 556.8 47.4Z" fill-rule="nonzero"></path></g></g></g><g id="g-root-cp_3_row-3_1hfpt1m1px98l-fill" data-item-order="-443188" transform="translate(26, 289)"><g id="cp_3_row-3_1hfpt1m1px98l-fill" stroke="none" fill="#e9ffb9"><g><path d="M 3.6 11.3L 3.5 10L 24.2 26.2L 23.6 10.5ZM 24.2 26.2L 44.1 22.2L 25 5.7L 3.5 10ZM 25 5.7L 20.1 93.6L 39.9 97.8L 44.1 22.2ZM 39.9 97.8L 72.5 11.8L 52.9 7.1L 20.1 93.6ZM 52.9 7.1L 44.6 85.7L 64.2 90.6L 72.5 11.8ZM 64.2 90.6L 95.3 14.6L 75.7 9.5L 44.6 85.7ZM 75.7 9.5L 66.4 88.6L 86.1 92.6L 95.3 14.6ZM 86.1 92.6L 109.3 13.7L 89.3 10.7L 66.4 88.6ZM 89.3 10.7L 88.1 92.8L 108 96.3L 109.3 13.7ZM 108 96.3L 135 18.1L 115.3 13.8L 88.1 92.8ZM 115.3 13.8L 107.8 88.9L 127.3 94.2L 135 18.1ZM 127.3 94.2L 162.7 16.3L 143.2 10.7L 107.8 88.9ZM 143.2 10.7L 133.1 86.6L 152.6 91.7L 162.7 16.3ZM 152.6 91.7L 184.9 10.7L 165.1 6.1L 133.1 86.6ZM 165.1 6.1L 159 89.5L 178.8 93.4L 184.9 10.7ZM 178.8 93.4L 204.1 15.1L 184.5 10.9L 159 89.5ZM 184.5 10.9L 176 88L 195.6 92.3L 204.1 15.1ZM 195.6 92.3L 224 9.3L 204.1 5.7L 176 88ZM 204.1 5.7L 201.7 92.5L 221.6 95.5L 224 9.3ZM 221.6 95.5L 244 13.2L 224.1 10.2L 201.7 92.5ZM 224.1 10.2L 221.2 91.1L 241.1 94.5L 244 13.2ZM 241.1 94.5L 267.9 10.1L 247.9 7.1L 221.2 91.1ZM 247.9 7.1L 248.4 91.8L 268.4 94.2L 267.9 10.1ZM 268.4 94.2L 287.7 16.4L 267.8 13.4L 248.4 91.8ZM 267.8 13.4L 263.4 92.9L 283.2 97.2L 287.7 16.4ZM 283.2 97.2L 315.2 14.8L 295.4 10.7L 263.4 92.9ZM 295.4 10.7L 292.5 87.6L 312.4 91.6L 315.2 14.8ZM 312.4 91.6L 340.7 16.8L 320.9 12.5L 292.5 87.6ZM 320.9 12.5L 315.7 88.8L 335.5 91.5L 340.7 16.8ZM 335.5 91.5L 352.6 10.3L 332.7 8L 315.7 88.8ZM 332.7 8L 330.8 94.8L 350.7 98.1L 352.6 10.3ZM 350.7 98.1L 376.8 15.7L 356.9 12.2L 330.8 94.8ZM 356.9 12.2L 354 87.4L 373.8 91.4L 376.8 15.7ZM 373.8 91.4L 403.1 12.5L 383.6 7.7L 354 87.4ZM 383.6 7.7L 372.3 92.6L 391.8 98.1L 403.1 12.5ZM 391.8 98.1L 427.7 16.9L 408.1 12L 372.3 92.6ZM 408.1 12L 401.9 92.3L 421.7 95.7L 427.7 16.9ZM 421.7 95.7L 444.6 8.9L 424.7 5.9L 401.9 92.3ZM 424.7 5.9L 421 86.6L 440.8 90.6L 444.6 8.9ZM 440.8 90.6L 468.5 15.3L 448.9 10.6L 421 86.6ZM 448.9 10.6L 439.6 93.4L 459.2 98L 468.5 15.3ZM 459.2 98L 489.5 16L 469.9 11.5L 439.6 93.4ZM 469.9 11.5L 462.5 86.7L 482.2 91L 489.5 16ZM 482.2 91L 508.5 15.5L 488.7 11.6L 462.5 86.7ZM 488.7 11.6L 484.3 91.6L 504.1 95.9L 508.5 15.5ZM 504.1 95.9L 532.1 25.3L 512.1 21.4L 484.3 91.6ZM 512.1 21.4L 511.5 84.5L 531.5 89.2L 532.1 25.3ZM 531.5 89.2L 555.2 39.9L 535.4 35.1L 511.5 84.5ZM 535.4 35.1L 534.6 64.5L 554.6 65L 555.2 39.9Z" fill-rule="nonzero"></path></g></g></g><g id="g-root-cp_4_row-4_18k2ssq1pxa1b-fill" data-item-order="-443172" transform="translate(26, 373)"><g id="cp_4_row-4_18k2ssq1pxa1b-fill" stroke="none" fill="#fff8b6"><g><path d="M 8.2 16.9L 9.1 14.9L 29.1 25.2L 49.1 22.7L 31 6.1L 25.7 7.1L 26.5 8.9ZM 31 6.1L 19.9 97.7L 39.5 102.6L 49.1 22.7ZM 39.5 102.6L 72.7 17.3L 53.1 12.5L 19.9 97.7ZM 53.1 12.5L 43.6 100.9L 63.2 105.6L 72.7 17.3ZM 63.2 105.6L 96.5 18.5L 77.1 13.2L 43.6 100.9ZM 77.1 13.2L 61.9 105.6L 81.5 110L 96.5 18.5ZM 81.5 110L 108.6 14.4L 88.8 10.7L 61.9 105.6ZM 88.8 10.7L 80.1 100.4L 99.8 105.2L 108.6 14.4ZM 99.8 105.2L 135.6 16L 116 11.1L 80.1 100.4ZM 116 11.1L 105.5 105.9L 125.1 110.4L 135.6 16ZM 125.1 110.4L 158.5 17.2L 138.7 13.1L 105.5 105.9ZM 138.7 13.1L 132.5 106.9L 152.4 109.7L 158.5 17.2ZM 152.4 109.7L 174.2 10.7L 154.2 8.2L 132.5 106.9ZM 154.2 8.2L 151.4 99L 171.3 102.3L 174.2 10.7ZM 171.3 102.3L 199.6 10.3L 179.9 6.2L 151.4 99ZM 179.9 6.2L 169.2 99.6L 188.8 104.2L 199.6 10.3ZM 188.8 104.2L 220.9 16.3L 201.2 12L 169.2 99.6ZM 201.2 12L 194.3 99.6L 214 104.1L 220.9 16.3ZM 214 104.1L 248.2 16.5L 228.5 11.8L 194.3 99.6ZM 228.5 11.8L 219.3 102.4L 239 106.2L 248.2 16.5ZM 239 106.2L 266.9 11.4L 247.3 7.1L 219.3 102.4ZM 247.3 7.1L 232.7 103.4L 252.2 108L 266.9 11.4ZM 252.2 108L 282.5 14L 262.7 10.4L 232.7 103.4ZM 262.7 10.4L 257.5 106.2L 277.4 109.4L 282.5 14ZM 277.4 109.4L 304 11.3L 284.3 7.6L 257.5 106.2ZM 284.3 7.6L 274.6 102.7L 294.3 106.9L 304 11.3ZM 294.3 106.9L 325.8 11.6L 306 7.8L 274.6 102.7ZM 306 7.8L 300.4 102.7L 320.2 106.5L 325.8 11.6ZM 320.2 106.5L 352.5 11L 332.7 7.2L 300.4 102.7ZM 332.7 7.2L 326.7 104L 346.5 107.5L 352.5 11ZM 346.5 107.5L 373.6 14.9L 353.8 11.3L 326.7 104ZM 353.8 11.3L 347.1 102.9L 366.9 106.1L 373.6 14.9ZM 366.9 106.1L 391.6 9.3L 371.8 6.1L 347.1 102.9ZM 371.8 6.1L 364.9 103.3L 384.7 107.2L 391.6 9.3ZM 384.7 107.2L 415.7 13.7L 396 9.5L 364.9 103.3ZM 396 9.5L 386.7 105.7L 406.4 109.8L 415.7 13.7ZM 406.4 109.8L 437.2 15.5L 417.3 12L 386.7 105.7ZM 417.3 12L 414.5 103.9L 434.4 106.5L 437.2 15.5ZM 434.4 106.5L 457.1 9.7L 437.2 6.6L 414.5 103.9ZM 437.2 6.6L 430.5 99.7L 450.3 103.6L 457.1 9.7ZM 450.3 103.6L 480.4 10.8L 460.6 7.1L 430.5 99.7ZM 460.6 7.1L 454.8 99.9L 474.6 103.3L 480.4 10.8ZM 474.6 103.3L 500.6 13.6L 480.7 10.4L 454.8 99.9ZM 480.7 10.4L 477.7 100.3L 497.6 103.4L 500.6 13.6ZM 497.6 103.4L 522.3 16.3L 502.5 12.7L 477.7 100.3ZM 502.5 12.7L 495.4 100.6L 515.1 105.2L 522.3 16.3ZM 515.1 105.2L 541.7 38.9L 521.7 35.3L 495.4 100.6ZM 521.7 35.3L 522.7 82.8L 542.8 88.1L 541.7 38.9ZM 542.8 88.1L 562.5 54.8L 540.7 52.4L 522.7 82.8ZM 540.7 52.4L 545 65.6L 564 59.4L 562.5 54.8Z" fill-rule="nonzero"></path></g></g></g><g id="g-root-cp_1_g-1_144vrre1px7nt-fill" data-item-order="-443154" transform="translate(734, 92)"><g id="cp_1_g-1_144vrre1px7nt-fill" stroke="none" fill="#d1f4ff"><g><path d="M 14.7 35.7L 4.6 47.7L 19.4 61.2L 30 48.6ZM 19.4 61.2L 63.5 16.4L 46.3 5.4L 4.6 47.7ZM 46.3 5.4L 21.9 70.4L 39.6 80.2L 63.5 16.4ZM 39.6 80.2L 86.7 18.3L 69.1 8.3L 21.9 70.4ZM 69.1 8.3L 32.9 98L 50.8 107.2L 86.7 18.3ZM 50.8 107.2L 107.6 18L 89.8 8.7L 32.9 98ZM 89.8 8.7L 44.6 115.7L 62.5 124.8L 107.6 18ZM 62.5 124.8L 129.8 13.2L 111.5 4.9L 44.6 115.7ZM 111.5 4.9L 73.8 124.1L 92.3 131.9L 129.8 13.2ZM 92.3 131.9L 152.9 17.6L 134.5 9.6L 73.8 124.1ZM 134.5 9.6L 94.9 124.6L 113.3 132.6L 152.9 17.6ZM 113.3 132.6L 173.8 18L 155.3 10.2L 94.9 124.6ZM 155.3 10.2L 120.9 120.3L 139.3 128.3L 173.8 18ZM 139.3 128.3L 203.1 16L 185 7.3L 120.9 120.3ZM 185 7.3L 138.1 124L 156.1 132.8L 203.1 16ZM 156.1 132.8L 224.3 17.1L 206.1 8.5L 138.1 124ZM 206.1 8.5L 164 123.1L 182.4 131L 224.3 17.1ZM 182.4 131L 239.8 16L 221 8.8L 164 123.1ZM 221 8.8L 188.2 124.9L 206.7 133.2L 239.8 16ZM 206.7 133.2L 254.4 58.6L 236.7 49.2L 188.2 124.9ZM 236.7 49.2L 208 115.4L 222.2 132.9L 254.4 58.6ZM 222.2 132.9L 252.5 126.6L 239.8 108.8L 208 115.4ZM 239.8 108.8L 232.5 121.2L 249.7 131.3L 252.5 126.6Z" fill-rule="nonzero"></path></g></g></g><g id="g-root-cp_2_g-2_144vrre1px7nv-fill" data-item-order="-443150" transform="translate(746, 180.5)"><g id="cp_2_g-2_144vrre1px7nv-fill" stroke="none" fill="#c8ffe5"><g><path d="M 238.7 125.8L 240.1 120.1L 223 106L 219.2 121ZM 223 106L 195.2 118.8L 210.5 133.7L 240.1 120.1ZM 210.5 133.7L 240.2 65.7L 222.5 56.2L 195.2 118.8ZM 222.5 56.2L 179.2 122.5L 197.2 131.5L 240.2 65.7ZM 197.2 131.5L 226.2 50.8L 208.6 40.8L 179.2 122.5ZM 208.6 40.8L 148 115.3L 165.1 125.9L 226.2 50.8ZM 165.1 125.9L 199.7 50.5L 182.2 40.6L 148 115.3ZM 182.2 40.6L 128.5 120.2L 146.2 129.6L 199.7 50.5ZM 146.2 129.6L 177.8 51L 160.1 41.5L 128.5 120.2ZM 160.1 41.5L 104.5 122.5L 122.5 131.7L 177.8 51ZM 122.5 131.7L 154.4 44.7L 136.6 35L 104.5 122.5ZM 136.6 35L 76.3 115.7L 93.6 126L 154.4 44.7ZM 93.6 126L 131.2 44.4L 113.6 34.9L 76.3 115.7ZM 113.6 34.9L 58.3 123.5L 76.4 132.1L 131.2 44.4ZM 76.4 132.1L 105.5 47.5L 87.6 37.9L 58.3 123.5ZM 87.6 37.9L 38.6 101.5L 55.8 111.9L 105.5 47.5ZM 55.8 111.9L 83.5 53L 67.6 40L 38.6 101.5ZM 67.6 40L 24.5 71.9L 40.4 85L 83.5 53ZM 40.4 85L 57.6 49L 42.1 35.1L 24.5 71.9ZM 42.1 35.1L 12.7 53.5L 35.6 62.8L 57.6 49ZM 35.6 62.8L 29.6 38.3L 10.2 43.1L 12.7 53.5ZM 38 43.4L 41.7 28.5L 22.3 23.6L 18.6 38.5Z" fill-rule="nonzero"></path></g></g></g><g id="g-root-cp_3_g-3_144vrre1px7nx-fill" data-item-order="-443146" transform="translate(758, 264.5)"><g id="cp_3_g-3_144vrre1px7nx-fill" stroke="none" fill="#e9ffb9"><g><path d="M 225.5 128.5L 227.9 115.3L 209.9 102.6L 205.8 124.9ZM 209.9 102.6L 188.4 114.9L 205.1 128.4L 227.9 115.3ZM 205.1 128.4L 226.4 63L 208.4 53.8L 188.4 114.9ZM 208.4 53.8L 163 116.8L 180.9 126.2L 226.4 63ZM 180.9 126.2L 208.2 49.4L 190 41L 163 116.8ZM 190 41L 142.2 122.6L 160.4 131.2L 208.2 49.4ZM 160.4 131.2L 192.1 45.4L 174.2 36.2L 142.2 122.6ZM 174.2 36.2L 115.2 122.2L 132.9 131.7L 192.1 45.4ZM 132.9 131.7L 166.6 48.9L 148.8 39.4L 115.2 122.2ZM 148.8 39.4L 91.9 123L 109.8 132.2L 166.6 48.9ZM 109.8 132.2L 141.8 46.5L 123.9 37.2L 91.9 123ZM 123.9 37.2L 67.9 117.8L 85.4 127.7L 141.8 46.5ZM 85.4 127.7L 119.8 49.4L 102.3 39.6L 67.9 117.8ZM 102.3 39.6L 50.5 113.8L 68.4 123.1L 119.8 49.4ZM 68.4 123.1L 96.6 45.1L 79 35L 50.5 113.8ZM 79 35L 33.9 89.1L 51.7 98.9L 96.6 45.1ZM 51.7 98.9L 68.1 48.4L 50.5 37.9L 33.9 89.1ZM 50.5 37.9L 20.4 69.5L 36.5 81.7L 68.1 48.4ZM 36.5 81.7L 51.9 55.7L 41 35L 20.4 69.5ZM 41 35L 9.2 32.8L 22.4 53.8L 51.9 55.7ZM 22.4 53.8L 31.3 31.3L 12.7 24L 9.2 32.8Z" fill-rule="nonzero"></path></g></g></g><g id="g-root-cp_4_g-4_zp29my1px8g7-fill" data-item-order="-443142" transform="translate(769.5, 348.5)"><g id="cp_4_g-4_zp29my1px8g7-fill" stroke="none" fill="#fff8b6"><g><path d="M 218.2 121.2L 218.2 118.1L 198.2 107.5L 198.2 121.2ZM 198.2 107.5L 178.9 120.5L 195.6 133.4L 218.2 118.1ZM 195.6 133.4L 219 67.7L 201.5 57.3L 178.9 120.5ZM 201.5 57.3L 148 117.9L 164.9 128.9L 219 67.7ZM 164.9 128.9L 201.8 48.8L 184.4 38.7L 148 117.9ZM 184.4 38.7L 123.7 121.8L 140.8 132.4L 201.8 48.8ZM 140.8 132.4L 181.8 52.5L 165 41.3L 123.7 121.8ZM 165 41.3L 99 119.9L 116 130.7L 181.8 52.5ZM 116 130.7L 155.1 45L 137.9 34.5L 99 119.9ZM 137.9 34.5L 75.8 113.9L 92.9 124.4L 155.1 45ZM 92.9 124.4L 130.4 45L 113.2 34.7L 75.8 113.9ZM 113.2 34.7L 48.9 120.4L 66.2 130.7L 130.4 45ZM 66.2 130.7L 105.1 45.1L 87.8 34.8L 48.9 120.4ZM 87.8 34.8L 37.6 100.6L 54.6 111.2L 105.1 45.1ZM 54.6 111.2L 86.3 48.5L 70.4 35.6L 37.6 100.6ZM 70.4 35.6L 30.1 68.4L 45.6 81.6L 86.3 48.5ZM 45.6 81.6L 58.8 58.4L 50.1 33.4L 30.1 68.4ZM 50.1 33.4L 23 22.5L 33.6 48.3L 58.8 58.4ZM 33.6 48.3L 43.4 25.6L 25.1 17.7L 23 22.5ZM 28.8 59.9L 36.1 46.1L 18.4 36.7L 11.1 50.5Z" fill-rule="nonzero"></path></g></g></g><g id="g-root-tx_2_1usf9l61px9u7-fill" data-item-order="0" transform="translate(56, 230)"><g id="tx_2_1usf9l61px9u7-fill" stroke="none" fill="#484848"><g><text style="font: bold 30px &quot;Shantell Sans&quot;, cursive; white-space: pre;" font-weight="bold" font-size="30px" font-family="'Shantell Sans', cursive"><tspan x="17.5" y="48" dominant-baseline="ideographic">2</tspan></text></g></g></g><g id="g-root-tx_parseyam_92rpze1px8gd-fill" data-item-order="0" transform="translate(122, 218)"><g id="tx_parseyam_92rpze1px8gd-fill" stroke="none" fill="#484848"><g><text style="font: bold 20px &quot;Shantell Sans&quot;, cursive; white-space: pre;" font-weight="bold" font-size="20px" font-family="'Shantell Sans', cursive"><tspan x="12" y="35" dominant-baseline="ideographic">Parse YAML</tspan></text></g></g></g><g id="g-root-tx_identify_mdlr9m1pxa17-fill" data-item-order="0" transform="translate(122, 170)"><g id="tx_identify_mdlr9m1pxa17-fill" stroke="none" fill="#484848"><g><text style="font: 15px &quot;Shantell Sans&quot;, cursive; white-space: pre;" font-size="15px" font-family="'Shantell Sans', cursive"><tspan x="12" y="32" dominant-baseline="ideographic">Identify and isolate YAML content</tspan></text></g></g></g><g id="g-root-ic_yamm_zp29my1pymma-fill" data-item-order="0" transform="translate(908, 230)"></g><g id="g-root-tx_generate_1d1rq6i1px91o-fill" data-item-order="0" transform="translate(122, 422)"><g id="tx_generate_1d1rq6i1px91o-fill" stroke="none" fill="#484848"><g><text style="font: 15px &quot;Shantell Sans&quot;, cursive; white-space: pre;" font-size="15px" font-family="'Shantell Sans', cursive"><tspan x="12" y="29" dominant-baseline="ideographic">Generate Excel spreadsheet from transformed </tspan><tspan x="12" y="47" dominant-baseline="ideographic">data</tspan></text></g></g></g><g id="g-root-ic_1_1usf9l61pyo03-fill" data-item-order="0" transform="translate(908, 146)"></g><g id="g-root-tx_transfor_74pqi1pxa0w-fill" data-item-order="0" transform="translate(122, 302)"><g id="tx_transfor_74pqi1pxa0w-fill" stroke="none" fill="#484848"><g><text style="font: bold 20px &quot;Shantell Sans&quot;, cursive; white-space: pre;" font-weight="bold" font-size="20px" font-family="'Shantell Sans', cursive"><tspan x="12" y="35" dominant-baseline="ideographic">Transform Data</tspan></text></g></g></g><g id="g-root-tx_extracty_v98rii1px98i-fill" data-item-order="0" transform="translate(122, 134)"><g id="tx_extracty_v98rii1px98i-fill" stroke="none" fill="#484848"><g><text style="font: bold 20px &quot;Shantell Sans&quot;, cursive; white-space: pre;" font-weight="bold" font-size="20px" font-family="'Shantell Sans', cursive"><tspan x="12" y="35" dominant-baseline="ideographic">Extract YAML</tspan></text></g></g></g><g id="g-root-tx_3_1qd88ju1px7gq-fill" data-item-order="0" transform="translate(56, 314)"><g id="tx_3_1qd88ju1px7gq-fill" stroke="none" fill="#484848"><g><text style="font: bold 30px &quot;Shantell Sans&quot;, cursive; white-space: pre;" font-weight="bold" font-size="30px" font-family="'Shantell Sans', cursive"><tspan x="17.5" y="48" dominant-baseline="ideographic">3</tspan></text></g></g></g><g id="g-root-ic_sync_18ly8221px9ty-fill" data-item-order="0" transform="translate(908, 314)"></g><g id="g-root-tx_reformat_1qd88ju1px7gp-fill" data-item-order="0" transform="translate(122, 338)"><g id="tx_reformat_1qd88ju1px7gp-fill" stroke="none" fill="#484848"><g><text style="font: 15px &quot;Shantell Sans&quot;, cursive; white-space: pre;" font-size="15px" font-family="'Shantell Sans', cursive"><tspan x="12" y="32" dominant-baseline="ideographic">Reformat data to fit Excel structure</tspan></text></g></g></g><g id="g-root-tx_1_hyeq8a1px7no-fill" data-item-order="0" transform="translate(62, 146)"><g id="tx_1_hyeq8a1px7no-fill" stroke="none" fill="#484848"><g><text style="font: bold 30px &quot;Shantell Sans&quot;, cursive; white-space: pre;" font-weight="bold" font-size="30px" font-family="'Shantell Sans', cursive"><tspan x="15.18" y="48" dominant-baseline="ideographic">1</tspan></text></g></g></g><g id="g-root-tx_createex_1lxeqfe1px88z-fill" data-item-order="0" transform="translate(122, 386)"><g id="tx_createex_1lxeqfe1px88z-fill" stroke="none" fill="#484848"><g><text style="font: bold 20px &quot;Shantell Sans&quot;, cursive; white-space: pre;" font-weight="bold" font-size="20px" font-family="'Shantell Sans', cursive"><tspan x="12" y="35" dominant-baseline="ideographic">Create Excel</tspan></text></g></g></g><g id="g-root-tx_converti_zp29my1px8g9-fill" data-item-order="0" transform="translate(326, 38)"><g id="tx_converti_zp29my1px8g9-fill" stroke="none" fill="#484848"><g><text style="font: bold 25px &quot;Shantell Sans&quot;, cursive; white-space: pre;" font-weight="bold" font-size="25px" font-family="'Shantell Sans', cursive"><tspan x="16.45" y="45" dominant-baseline="ideographic">Converting YAML to Excel</tspan></text></g></g></g><g id="g-root-tx_4_1d1rq6i1px91p-fill" data-item-order="0" transform="translate(56, 404)"><g id="tx_4_1d1rq6i1px91p-fill" stroke="none" fill="#484848"><g><text style="font: bold 30px &quot;Shantell Sans&quot;, cursive; white-space: pre;" font-weight="bold" font-size="30px" font-family="'Shantell Sans', cursive"><tspan x="17.5" y="48" dominant-baseline="ideographic">4</tspan></text></g></g></g><g id="g-root-ic_exce_1unfgwa1pyolc-fill" data-item-order="0" transform="translate(908, 398)"></g><g id="g-root-tx_converty_4my7uy1px98m-fill" data-item-order="0" transform="translate(122, 254)"><g id="tx_converty_4my7uy1px98m-fill" stroke="none" fill="#484848"><g><text style="font: 15px &quot;Shantell Sans&quot;, cursive; white-space: pre;" font-size="15px" font-family="'Shantell Sans', cursive"><tspan x="12" y="32" dominant-baseline="ideographic">Convert YAML data into structured format</tspan></text></g></g></g><g id="g-root-tf_1unfgwa1q01z9-stroke" data-item-order="-550800"></g><g id="g-root-cp_1_row-1_1lvjb621px8g9-stroke" data-item-order="-443222" transform="translate(26, 121)"><g id="cp_1_row-1_1lvjb621px8g9-stroke" fill="none" stroke-linecap="round" stroke-linejoin="round" stroke-miterlimit="4" stroke="#484848" stroke-width="4"><g><path d="M 10 10C 37.4 11.9 65 10.4 92.4 10C 120.3 9.6 148.3 8.3 176.1 10C 206.8 11.9 237.7 9.7 268.6 10C 296.7 10.3 324.9 8.1 352.9 10C 382 12 411.3 11.8 440.3 10C 464.8 8.5 489.5 10.1 514 10C 521.5 17.7 531 23.4 538.4 31.3C 545.5 39 555 44.2 562 52C 546.6 66.6 531 81.3 514 94C 487.9 92.7 461.6 95.9 435.4 94C 409.6 92.1 383.7 94.1 357.8 94C 329.4 93.9 300.9 93.1 272.4 94C 243.3 94.9 214.3 95.3 185.2 94C 157.4 92.7 129.4 95.7 101.6 94C 71.1 92.1 40.5 92.9 10 94C 10.6 66 9.6 38 10 10"></path><path d="M 10 10L 514 10L 562 52L 514 94L 10 94L 10 10Z"></path></g></g></g><g id="g-root-cp_2_row-2_1hfpt1m1px98j-stroke" data-item-order="-443204" transform="translate(26, 205)"><g id="cp_2_row-2_1hfpt1m1px98j-stroke" fill="none" stroke-linecap="round" stroke-linejoin="round" stroke-miterlimit="4" stroke="#484848" stroke-width="4"><g><path d="M 10 10C 36.1 8.6 62.2 11.4 88.3 10C 119 8.4 149.7 11.6 180.4 10C 206.1 8.6 232 10.8 257.7 10C 285.8 9.1 314 10.2 342.1 10C 368.4 9.8 394.8 8.2 421 10C 451.9 12.1 483 10.5 514 10C 530.1 23.9 546.3 37.7 562 52C 545.9 65.9 529.5 79.4 514 94C 500.2 92.5 486.2 92.6 472.4 94C 457.5 95.5 442.4 94.2 427.4 94C 412.3 93.8 397.1 93.6 381.9 94C 368.6 94.4 355.3 94.7 342 94C 328.5 93.3 314.9 92 301.6 94C 288.1 96 274.4 93.7 260.8 94C 246.6 94.3 232.4 93.8 218.2 94C 205.7 94.2 193.1 93.7 180.6 94C 167.2 94.4 153.7 94.4 140.3 94C 124.6 93.6 108.9 94.3 93.1 94C 79.8 93.7 66.5 93.3 53.2 94C 38.8 94.8 24.4 94.2 10 94C 11.4 80 12 65.7 10 51.8C 8.1 38 10.7 23.9 10 10"></path><path d="M 10 10L 514 10L 562 52L 514 94L 10 94L 10 10Z"></path></g></g></g><g id="g-root-cp_3_row-3_1hfpt1m1px98l-stroke" data-item-order="-443188" transform="translate(26, 289)"><g id="cp_3_row-3_1hfpt1m1px98l-stroke" fill="none" stroke-linecap="round" stroke-linejoin="round" stroke-miterlimit="4" stroke="#484848" stroke-width="4"><g><path d="M 10 10C 23.1 10.6 36.2 10.5 49.2 10C 63.6 9.5 77.9 10 92.3 10C 106.8 10 121.3 8.8 135.6 10C 148.2 11.1 160.9 11.3 173.5 10C 186.5 8.7 199.7 8.5 212.7 10C 227.6 11.7 242.8 9.2 257.8 10C 272.9 10.8 288 10.3 303.1 10C 317.3 9.7 331.4 10.7 345.6 10C 358.7 9.4 371.8 9.7 385 10C 399.9 10.3 414.9 8.9 429.8 10C 444.8 11.2 460 8.2 475 10C 487.9 11.5 501 11.3 514 10C 530.4 23.5 545.5 38.6 562 52C 545.4 65.3 529.5 79.5 514 94C 486.4 93.8 458.8 93.5 431.2 94C 405.2 94.4 379.2 93.4 353.2 94C 326.5 94.6 299.7 92.7 273 94C 241.7 95.6 210.3 94.5 178.9 94C 150.4 93.5 121.8 94.2 93.2 94C 65.5 93.8 37.7 93.2 10 94C 9.4 66 8.5 38 10 10"></path><path d="M 10 10L 514 10L 562 52L 514 94L 10 94L 10 10Z"></path></g></g></g><g id="g-root-cp_4_row-4_18k2ssq1pxa1b-stroke" data-item-order="-443172" transform="translate(26, 373)"><g id="cp_4_row-4_18k2ssq1pxa1b-stroke" fill="none" stroke-linecap="round" stroke-linejoin="round" stroke-miterlimit="4" stroke="#484848" stroke-width="4"><g><path d="M 10 10C 24.9 11.7 40.1 9.3 55.1 10C 69.1 10.6 83.1 9.7 97.1 10C 112.2 10.4 127.3 10.7 142.3 10C 155 9.4 167.9 11.7 180.5 10C 194.5 8.1 208.8 10.6 222.9 10C 237.2 9.4 251.6 11.6 265.8 10C 279 8.5 292.5 8.3 305.7 10C 319.8 11.8 334.1 11.3 348.2 10C 360.8 8.9 373.5 9.6 386.2 10C 401.4 10.4 416.7 11.6 431.9 10C 445.1 8.6 458.5 10.9 471.7 10C 485.8 9 500 8.6 514 10C 531 25 546.4 41.6 562 58C 554.5 66.7 546.6 75.2 537.6 82.4C 528.9 89.3 522.9 99.2 514 106C 484.1 104.1 454.1 105.5 424.1 106C 398.3 106.4 372.4 106.3 346.5 106C 317 105.6 287.4 106.4 257.9 106C 229.8 105.6 201.8 105.5 173.7 106C 144.9 106.5 116 106.9 87.2 106C 61.5 105.2 35.7 107.7 10 106C 11.8 90.4 8.4 74.4 10 58.8C 11.6 42.6 11 26.2 10 10"></path><path d="M 10 9.999999L 514 9.999999L 562 58L 514 106L 10 106L 10 9.999999Z"></path></g></g></g><g id="g-root-cp_1_g-1_144vrre1px7nt-stroke" data-item-order="-443154" transform="translate(734, 92)"><g id="cp_1_g-1_144vrre1px7nt-stroke" fill="none" stroke-linecap="round" stroke-linejoin="round" stroke-miterlimit="4" stroke="#484848" stroke-width="4"><g><path d="M 250 130C 233.6 131.7 217 130.6 200.5 130C 183.6 129.3 166.8 130.2 150 130C 135.9 129.8 121.9 130.6 107.9 130C 91.3 129.3 74.6 128.4 58 130C 50.2 115.7 40.5 102.4 33.7 87.5C 27.1 73 17.4 60.1 10 46C 30.6 45.6 51.2 46.4 71.8 46C 91.6 45.6 111.3 45.3 131.1 46C 149.4 46.6 167.7 45.8 185.9 46C 207.3 46.2 228.7 45.3 250 46C 251.3 74 249.4 102 250 130M 250 10C 225.2 9.2 200.4 9.9 175.6 10C 153.3 10.1 131.1 10.2 108.9 10C 82.7 9.8 56.6 11 30.5 10C 23.8 22 15.3 33.2 10 46C 36.1 46.4 62.2 45.9 88.2 46C 115.4 46.1 142.6 46.5 169.8 46C 196.5 45.5 223.3 45.7 250 46C 250.6 34 249.6 22 250 10"></path><path d="M 250 130L 58 130L 10 46L 250 46L 250 130ZM 250 10L 30.5 10L 10 46L 250 46L 250 10Z"></path></g></g></g><g id="g-root-cp_2_g-2_144vrre1px7nv-stroke" data-item-order="-443150" transform="translate(746, 180.5)"><g id="cp_2_g-2_144vrre1px7nv-stroke" fill="none" stroke-linecap="round" stroke-linejoin="round" stroke-miterlimit="4" stroke="#484848" stroke-width="4"><g><path d="M 238 125.5C 218.4 126.5 198.9 125.1 179.3 125.5C 160.2 125.9 141.2 126.4 122.2 125.5C 100.8 124.5 79.3 124.1 58 125.5C 49.2 110.5 40 95.8 32.2 80.3C 25.4 67 18.2 53.9 10 41.5C 37 40.5 64.2 43.5 91.2 41.5C 113.9 39.8 136.8 39.8 159.5 41.5C 185.6 43.5 211.8 41 238 41.5C 238.7 69.5 236.2 97.6 238 125.5M 46 41.5C 41.3 30.4 32.6 21.2 28 10C 21 19.8 17 31.6 10 41.5C 22 42.4 34 41.9 46 41.5"></path><path d="M 238 125.5L 58 125.5L 10 41.5L 238 41.5L 238 125.5ZM 46 41.5L 28 10L 10 41.5L 46 41.5Z"></path></g></g></g><g id="g-root-cp_3_g-3_144vrre1px7nx-stroke" data-item-order="-443146" transform="translate(758, 264.5)"><g id="cp_3_g-3_144vrre1px7nx-stroke" fill="none" stroke-linecap="round" stroke-linejoin="round" stroke-miterlimit="4" stroke="#484848" stroke-width="4"><g><path d="M 226 125.5C 195.3 127.1 164.5 127.4 133.9 125.5C 108.6 123.9 83.3 124.2 58 125.5C 40.7 98.3 25.3 69.9 10 41.5C 24.9 40.2 40 42.1 54.9 41.5C 68.2 41 81.6 40.9 94.9 41.5C 109.9 42.2 125.2 43.2 140.2 41.5C 154.9 39.8 169.9 40.4 184.8 41.5C 198.5 42.5 212.3 42.9 226 41.5C 226.2 69.5 226.7 97.5 226 125.5M 46 41.5C 40.2 30.9 33.7 20.6 28 10C 23.4 21.2 15.3 30.6 10 41.5C 22 41.9 34 41.5 46 41.5"></path><path d="M 226 125.5L 58 125.5L 10 41.5L 226 41.5L 226 125.5ZM 46 41.5L 28 10L 10 41.5L 46 41.5Z"></path></g></g></g><g id="g-root-cp_4_g-4_zp29my1px8g7-stroke" data-item-order="-443142" transform="translate(769.5, 348.5)"><g id="cp_4_g-4_zp29my1px8g7-stroke" fill="none" stroke-linecap="round" stroke-linejoin="round" stroke-miterlimit="4" stroke="#484848" stroke-width="4"><g><path d="M 214.5 125.5C 189.6 124.5 164.7 124.6 139.8 125.5C 112.6 126.5 85.2 123.7 58 125.5C 41 98.1 26.6 69.2 10 41.5C 31.7 41.3 53.4 42.6 75.1 41.5C 96.2 40.5 117.4 39.9 138.5 41.5C 163.7 43.4 189.2 42.2 214.5 41.5C 214.4 69.5 214.4 97.5 214.5 125.5M 46.5 41.5C 41.9 30.3 33 21.2 28.5 10C 24 21.2 16.7 31.1 10.5 41.5C 22.4 40.4 34.5 41.7 46.5 41.5"></path><path d="M 214.5 125.5L 58 125.5L 10 41.5L 214.5 41.5L 214.5 125.5ZM 46.5 41.5L 28.5 10L 10.5 41.5L 46.5 41.5Z"></path></g></g></g><g id="g-root-tx_2_1usf9l61px9u7-stroke" data-item-order="0" transform="translate(56, 230)"></g><g id="g-root-tx_parseyam_92rpze1px8gd-stroke" data-item-order="0" transform="translate(122, 218)"></g><g id="g-root-tx_identify_mdlr9m1pxa17-stroke" data-item-order="0" transform="translate(122, 170)"></g><g id="g-root-ic_yamm_zp29my1pymma-stroke" data-item-order="0" transform="translate(908, 230)"><g id="ic_yamm_zp29my1pymma-stroke" fill="none" stroke-linecap="round" stroke-linejoin="round" stroke-miterlimit="4" stroke="#484848" stroke-width="2"><g><path d="M 13 22C 19.6 22.799999 26.6 20.200001 33 22C 33 22 35.799999 22.200001 35 24C 32.599998 30.200001 34 37.400002 35 44C 35 44 35 46 33 46C 26.4 46 19.4 43.799999 13 46C 13 46 10.6 46 11 44C 12 37.400002 10.8 30.6 11 24C 11 24 11 21.799999 13 22M 10 10M 28 27C 27 30 24.4 32.200001 23 35C 22.4 31.799999 20.200001 29.200001 18 27M 23 35C 23.4 37 22.200001 39.200001 23 41M 35 29C 40.799999 26.200001 47 24 53.400002 23.6C 54.400002 23.4 55.200001 23.799999 55.799999 24.799999C 56.599998 27.799999 56.400002 31 57 34M 10 10M 30 22C 33.599998 19.200001 36.400002 15.4 39.799999 12.2C 40.599998 11.6 42 11.2 42.400002 12C 44.799999 16.4 48.200001 19.799999 50 24.6M 10 10M 35 39C 41.200001 40.200001 47.400002 42.200001 53.400002 44.599998C 54.400002 44.799999 55.599998 44.200001 55.799999 43.200001C 57 40.400002 56.400002 37 57 34M 10 10M 30 46C 33.599998 48.799999 36.200001 53 39.799999 55.799999C 40.599998 56.400002 41.599998 56.400002 42.400002 56C 46.599998 53.200001 48 48 50 43.599998"></path><path d="M 13 22L 33 22C 33 22 35 22 35 24L 35 44C 35 44 35 46 33 46L 13 46C 13 46 11 46 11 44L 11 24C 11 24 11 22 13 22M 10 10M 28 27L 23 35L 18 27M 23 35L 23 41M 35 29L 53.299999 23.5C 54.336948 23.184082 55.436817 23.751755 55.779999 24.779999C 56.674278 27.768923 57.086117 30.88135 57 34M 10 10M 30 22L 39.779999 12.22C 40.510078 11.497966 41.668312 11.446104 42.459999 12.1C 46.22715 15.327089 48.868195 19.670452 50 24.5M 10 10M 35 39L 53.299999 44.5C 54.336948 44.815918 55.436817 44.248245 55.779999 43.220001C 56.674278 40.231075 57.086117 37.118649 57 34M 10 10M 30 46L 39.779999 55.779999C 40.510078 56.502033 41.668312 56.553894 42.459999 55.900002C 46.22715 52.672913 48.868195 48.329548 50 43.5"></path></g></g></g><g id="g-root-tx_generate_1d1rq6i1px91o-stroke" data-item-order="0" transform="translate(122, 422)"></g><g id="g-root-ic_1_1usf9l61pyo03-stroke" data-item-order="0" transform="translate(908, 146)"><g id="ic_1_1usf9l61pyo03-stroke" fill="none" stroke-linecap="round" stroke-linejoin="round" stroke-miterlimit="4" stroke="#484848" stroke-width="2"><g><path d="M 49 35C 48.200001 31 49 27 49 23C 49 16.4 43.599998 11.8 37 11C 29 10.2 21 10.2 13 11C 11.8 11 10.8 12 11 13C 13.6 26.799999 8.6 41.200001 11 55C 11.2 56 11.8 57 13 57C 19 56.599998 25.4 55 31 57M 39 11.2C 39.599998 13.8 38.799999 16.4 39 19C 39.200001 20 40 20.799999 41 21C 43.599998 21.4 46.200001 21 48.799999 21M 45 41C 44.599998 42.200001 45 43.599998 45 45C 45.200001 47.200001 43.200001 48.799999 41 49C 38.799999 49.200001 37.799999 47 37 45C 36.599998 43.799999 36.599998 42.200001 37 41M 41 49C 41 51.599998 41 54.400002 41 57M 49 57C 49.200001 51.599998 49 46.400002 49 41C 50 43.799999 51.200001 46.599998 53 49C 54.400002 46.400002 55.200001 43.400002 57 41C 57.200001 46.400002 56.200001 51.799999 57 57"></path><path d="M 49 35L 49 22.956001C 49.003315 16.353855 43.652145 10.999999 37.049999 11L 13 11C 11.895431 11 11 11.895431 11 13L 11 55C 11 56.104568 11.895431 57 13 57L 31 57M 39 11.168L 39 19C 39 20.104568 39.895432 21 41 21L 48.84 21M 45 41L 45 45C 45 47.209141 43.209141 49 41 49C 38.790863 49 37 47.209141 37 45L 37 41M 41 49.007999L 41 57.007999M 49 57.007999L 49 41.007999L 53 49.007999L 57 41.007999L 57 57.007999"></path></g></g></g><g id="g-root-tx_transfor_74pqi1pxa0w-stroke" data-item-order="0" transform="translate(122, 302)"></g><g id="g-root-tx_extracty_v98rii1px98i-stroke" data-item-order="0" transform="translate(122, 134)"></g><g id="g-root-tx_3_1qd88ju1px7gq-stroke" data-item-order="0" transform="translate(56, 314)"></g><g id="g-root-ic_sync_18ly8221px9ty-stroke" data-item-order="0" transform="translate(908, 314)"><g id="ic_sync_18ly8221px9ty-stroke" fill="none" stroke-linecap="round" stroke-linejoin="round" stroke-miterlimit="4" stroke="#484848" stroke-width="2"><g><path d="M 41 47.799999C 38.799999 48.599998 36.200001 48.200001 33.799999 47.799999C 34.400002 50.400002 32.799999 53.200001 33.799999 55.400002M 55.799999 49.400002C 55.400002 54.200001 49.599998 58.799999 45 57C 40 56.200001 35 52.799999 35 47.799999M 49.799999 41.799999C 52.200001 41.799999 54.599998 41.400002 57 41.799999C 57.200001 39.400002 57.400002 36.799999 57 34.200001M 35 40.400002C 36 35.599998 41 33.599998 45.799999 32.799999C 50.799999 33 55.599998 36.799999 55.599998 41.799999M 11 19.200001C 24.200001 20.4 37.799999 22 50.599998 19.200001M 11 36.599998C 17.4 37 24.200001 38.799999 30.200001 36.599998M 11 27.799999C 23.799999 24.4 37.400002 28 50.599998 27.799999M 27.200001 19.200001C 27.4 28 25.799999 36.799999 27.200001 45.400002M 38.799999 19.200001C 39 22.799999 40.200001 26.6 38.799999 30M 28.6 45.400002C 24.4 44 19.6 44.799999 15.2 45.400002C 13 45.799999 11.4 43.599998 11 41.200001C 9.4 32.799999 10 23.799999 11 15.2C 11.2 13 13 11.4 15.2 11C 25.4 9 36 11.6 46.400002 11C 48.799999 10.8 50.200001 13 50.599998 15.2C 51.799999 20 50.799999 25.200001 50.599998 30.200001"></path><path d="M 41.042 47.897999L 33.788002 47.897999L 33.788002 55.456001M 55.872002 49.375999C 54.399643 54.110519 49.889694 57.231838 44.939999 56.942001C 39.984215 56.515766 35.939758 52.799995 35.096001 47.897999M 49.745998 41.854L 57 41.854L 57 34.298M 34.916 40.372002C 36.390583 35.63987 40.899967 32.521416 45.848 32.812C 50.801655 33.239838 54.844662 36.952637 55.692001 41.852001M 11 19.172001L 50.672001 19.172001M 11 36.501999L 30.148001 36.501999M 11 27.85L 50.661999 27.85M 27.204 19.172001L 27.204 45.470001M 38.821999 19.172001L 38.821999 30.056M 28.636 45.464001L 15.184 45.464001C 12.878763 45.463997 11.01 43.595234 11.01 41.289997L 11.01 15.2C 11.01331 12.897106 12.881104 11.031998 15.184 11.032L 46.487999 11.032C 48.790894 11.031998 50.658688 12.897106 50.661999 15.2L 50.661999 30.200001"></path></g></g></g><g id="g-root-tx_reformat_1qd88ju1px7gp-stroke" data-item-order="0" transform="translate(122, 338)"></g><g id="g-root-tx_1_hyeq8a1px7no-stroke" data-item-order="0" transform="translate(62, 146)"></g><g id="g-root-tx_createex_1lxeqfe1px88z-stroke" data-item-order="0" transform="translate(122, 386)"></g><g id="g-root-tx_converti_zp29my1px8g9-stroke" data-item-order="0" transform="translate(326, 38)"></g><g id="g-root-tx_4_1d1rq6i1px91p-stroke" data-item-order="0" transform="translate(56, 404)"></g><g id="g-root-ic_exce_1unfgwa1pyolc-stroke" data-item-order="0" transform="translate(908, 398)"><g id="ic_exce_1unfgwa1pyolc-stroke" fill="none" stroke-linecap="round" stroke-linejoin="round" stroke-miterlimit="4" stroke="#484848" stroke-width="2"><g><path d="M 23 46C 23 48 22.6 50 23 52C 23.200001 53 23.799999 54 25 54C 35 53.799999 45.200001 52.400002 55 54C 56 54.200001 56.799999 53 57 52C 60.200001 40.400002 59.799999 27.6 57 16C 56.799999 15 56 14 55 14C 45 13 35 14.6 25 14C 23.799999 14 22.6 15 23 16C 23.6 17.799999 22.6 20 23 22M 35 34C 42.400002 33.400002 49.799999 33 57 34M 35 24C 42.400002 24.200001 49.599998 23.6 57 24M 13 22C 19.6 20.6 26.4 23 33 22C 33 22 34.599998 22 35 24C 36.200001 30.6 34.400002 37.400002 35 44C 35 44 35 46.200001 33 46C 26.4 45.400002 19.6 47.400002 13 46C 13 46 11.8 45.799999 11 44C 8.6 37.799999 9.8 30.6 11 24C 11 24 11 21.799999 13 22M 18 28C 20.4 32.599998 24.4 36.200001 28 40M 28 28C 23.799999 31 22.200001 37 18 40M 40.200001 14C 40 24 39.400002 34 40.200001 44C 45.799999 43.799999 51.599998 42.599998 57 44"></path><path d="M 23 46L 23 52C 23 53.104568 23.895432 54 25 54L 55 54C 56.104568 54 57 53.104568 57 52L 57 16C 57 14.895431 56.104568 14 55 14L 25 14C 23.895432 14 23 14.895431 23 16L 23 22M 35 34L 57 34M 35 24L 57 24M 13 22L 33 22C 33 22 35 22 35 24L 35 44C 35 44 35 46 33 46L 13 46C 13 46 11 46 11 44L 11 24C 11 24 11 22 13 22M 18 28L 28 40M 28 28L 18 40M 40.260002 14L 40.260002 44L 57 44"></path></g></g></g><g id="g-root-tx_converty_4my7uy1px98m-stroke" data-item-order="0" transform="translate(122, 254)"></g></g></g><path id="w91j1ai2k8nb6" d="M65.283 12.757a.35.35 0 0 0 .584.157l5.203-5.141-6.183 3.523.396 1.461zm-2.216-11.7a.35.35 0 0 0-.522.305v3.111l3.276-1.868-2.754-1.548zm3.728 2.105l-4.25 2.421v2.445l6.391-3.644-2.141-1.222zm4.708 3.303a.35.35 0 0 0 0-.609l-1.592-.9-7.365 4.199v1.782a.35.35 0 0 0 .523.305l8.435-4.777z M44.542 2.513c0-.433.355-.783.792-.783s.792.35.792.783-.355.783-.792.783-.792-.35-.792-.783zm59.171 0c0-.433.355-.783.792-.783s.792.35.792.783-.355.783-.792.783-.792-.35-.792-.783zm-85.951 7.636h-1.27v-.487c-.276.201-.864.609-1.881.609-1.202 0-2.274-.794-2.137-2.078.118-1.106 1.153-1.584 1.848-1.727l2.17-.345c0-.539-.29-.956-1.064-1.006s-1.21.305-1.571 1.017l-1.124-.605c1.218-2.631 5.029-1.764 5.029.414v4.207zm-1.27-2.86c.006.396-.062 1.112-.819 1.59-.587.37-1.841.299-1.903-.395-.049-.555.461-.791.906-.898l1.816-.297zm72.662 2.86h-1.27v-.487c-.276.201-.864.609-1.881.609-1.202 0-2.274-.794-2.137-2.078.118-1.106 1.153-1.584 1.848-1.727l2.17-.345c0-.539-.29-.956-1.064-1.006s-1.21.305-1.571 1.017l-1.124-.605c1.218-2.631 5.029-1.764 5.029.414v4.207zm-1.27-2.86c.006.396-.062 1.112-.82 1.59-.587.37-1.841.299-1.903-.395-.049-.555.461-.791.906-.898l1.816-.297zM99.096 10.149H97.85v-8.45h1.246v4.895l2.68-2.559h1.738l-2.633 2.535 2.715 3.578h-1.556l-2.077-2.707-.867.844v1.863zm6.053-6.114h-1.255v6.113h1.255V4.035zm-59.2 0h-1.255v6.113h1.255V4.035zm5.584 6.113V1.697h1.255v2.695c.361-.346 1-.485 1.47-.485 1.452 0 2.477 1.082 2.457 2.448v3.792h-1.27v-3.68c0-.408-.214-1.339-1.315-1.339-.968 0-1.342.756-1.342 1.339v3.681h-1.255zm-4.76-4.894V4.039h.621a.45.45 0 0 0 .45-.45v-.855h1.251v1.305h1.309v1.215h-1.309v3.109c0 .293.105.664.648.664.365 0 .531-.035.736-.07v1.137s-.361.113-.857.113c-1.398 0-1.777-1.051-1.777-1.788V5.254h-1.071zM36.528 4.039h-1.394l2.191 6.106h1.125l1.234-3.918 1.238 3.918h1.129l2.188-6.106h-1.383l-1.359 3.93-1.256-3.93h-1.124l-1.242 3.957-1.348-3.957zM26.212 7.141c-.02 1.566 1.187 3.129 3.223 3.129 1.566 0 2.383-.918 2.734-1.719L31.172 8c-.315.399-.801 1.094-1.738 1.094-1.145 0-1.825-.781-1.891-1.52h4.625c.074-.284.148-.995-.03-1.559-.336-1.064-1.221-2.102-2.839-2.102s-3.088 1.152-3.088 3.227zm1.363-.75h3.348c-.055-.43-.566-1.301-1.623-1.301a1.79 1.79 0 0 0-1.725 1.301zm-8.758.75c.038 1.758 1.277 3.133 3.145 3.133 1.074 0 1.723-.477 1.961-.672v.547h1.242V1.703h-1.258v2.888c-.414-.36-1.062-.68-1.93-.68-1.91 0-3.198 1.473-3.16 3.23zm1.309-.08c0 1.119.723 1.978 1.836 1.978a1.88 1.88 0 0 0 1.94-1.904c0-1.371-1.011-1.99-1.972-1.99s-1.805.798-1.805 1.916zm76.683-.028C96.771 5.275 95.532 3.9 93.664 3.9c-1.074 0-1.723.477-1.961.672v-.547h-1.242v8.22h1.258V9.583c.414.36 1.063.68 1.93.68 1.91 0 3.198-1.473 3.16-3.23zm-1.309.08c0-1.119-.723-1.978-1.836-1.978a1.88 1.88 0 0 0-1.94 1.904c0 1.371 1.011 1.99 1.972 1.99S95.5 8.231 95.5 7.113zM106.441 10.173V4.036h1.254v.382c.361-.346 1-.485 1.47-.485 1.452 0 2.477 1.082 2.457 2.448v3.792h-1.27V6.492c0-.408-.214-1.339-1.315-1.339-.969 0-1.342.756-1.342 1.339v3.681h-1.254zm-30.383-.021V1.824h1.084l4.215 5.777V1.824h1.32v8.328h-1.094l-4.207-5.796v5.796h-1.319zM5.24 10.149H4V2.377h1.014l2.664 3.597 2.654-3.592h1.03v7.766h-1.256V4.762L7.678 8.068 5.24 4.742v5.407z" transform="translate(884, 506)" fill="#80808088" stroke="none"></path></svg>